<?xml version="1.0" standalone="no"?>
<!DOCTYPE svg PUBLIC "-//W3C//DTD SVG 20010904//EN"
 "http://www.w3.org/TR/2001/REC-SVG-20010904/DTD/svg10.dtd">
<svg version="1.0" xmlns="http://www.w3.org/2000/svg"
 width="3840.000000pt" height="2160.000000pt" viewBox="0 0 3840.000000 2160.000000"
 preserveAspectRatio="xMidYMid meet">

<g transform="translate(0.000000,2160.000000) scale(0.100000,-0.100000)"
fill="#000000" stroke="none">
<path d="M0 10800 l0 -10800 19200 0 19200 0 0 10800 0 10800 -19200 0 -19200
0 0 -10800z m29250 6496 c499 -63 913 -183 1311 -381 255 -126 488 -277 864
-560 746 -562 1170 -1046 1509 -1723 130 -260 239 -519 496 -1187 399 -1032
567 -1418 788 -1805 249 -436 470 -743 1026 -1429 414 -509 521 -651 674 -891
327 -513 465 -1011 432 -1562 -46 -763 -345 -1491 -848 -2065 l-54 -63 -154 0
-153 0 -3 93 -3 92 -187 3 -187 2 -5 28 c-3 15 -85 457 -181 982 -195 1070
-218 1195 -319 1740 l-72 385 -167 3 c-166 2 -167 2 -172 -20 -10 -43 -131
-702 -390 -2118 -96 -525 -177 -965 -180 -978 l-5 -22 -182 2 -182 3 -242
1690 c-133 930 -245 1707 -248 1728 l-6 37 295 0 295 0 0 388 0 389 -142 6
c-79 4 -717 7 -1420 7 l-1276 0 -6 38 c-12 77 -56 453 -56 477 0 15 6 25 14
25 8 0 22 7 30 16 13 13 16 42 16 160 l0 145 -34 32 -34 32 74 539 c40 296 75
540 76 542 2 1 37 -9 78 -23 103 -36 238 -37 324 -3 104 40 168 125 204 269 9
36 28 83 44 105 88 123 102 339 28 463 -19 32 -19 36 -4 95 14 55 15 107 5
482 -13 470 -9 449 -87 461 l-44 6 0 65 c0 62 -1 65 -32 84 -22 13 -51 20 -85
20 l-53 0 0 54 c0 48 -3 57 -31 80 -42 36 -89 35 -131 -3 -30 -26 -33 -36 -38
-98 l-5 -68 -46 3 c-33 2 -52 -3 -69 -16 -24 -20 -26 -30 -46 -337 -4 -55 -9
-93 -11 -85 -20 69 -38 102 -63 115 -37 19 -80 19 -108 -1 -21 -14 -22 -22
-22 -147 0 -160 16 -399 30 -463 6 -26 22 -70 35 -98 13 -28 23 -51 22 -53 -2
-1 -313 75 -439 108 -26 7 -38 15 -38 28 0 9 -13 30 -30 46 -28 27 -30 34 -30
102 0 62 5 83 30 133 22 44 33 82 39 146 8 82 10 87 44 115 48 39 72 103 64
172 l-7 52 49 43 c66 56 104 134 104 211 0 64 -20 110 -81 188 -105 132 -372
275 -542 290 -205 18 -539 -172 -644 -366 -56 -104 -32 -207 70 -300 l54 -50
-11 -49 c-20 -85 9 -164 75 -203 32 -18 33 -23 39 -92 3 -39 15 -96 26 -125
16 -40 21 -75 21 -142 l0 -89 -35 -27 c-22 -17 -35 -35 -35 -50 0 -18 -8 -25
-37 -33 -21 -6 -157 -40 -303 -76 -146 -36 -273 -68 -282 -71 -17 -5 -18 9
-18 190 l0 196 -49 0 -49 0 -5 448 c-4 410 -6 455 -26 544 -61 276 -174 483
-370 678 -204 204 -462 337 -740 384 -120 20 -351 21 -462 1 -353 -61 -665
-249 -872 -524 -113 -150 -184 -298 -234 -486 l-27 -100 -4 -472 -3 -472 -72
-3 -72 -3 -3 -1237 -2 -1238 1096 0 1097 0 61 -64 c66 -70 102 -86 204 -91 51
-2 54 -4 103 -61 95 -112 169 -159 238 -151 71 8 231 63 285 97 26 17 50 29
53 27 2 -3 -10 -125 -28 -271 l-32 -266 -1531 0 c-842 0 -1595 -3 -1673 -7
l-143 -6 0 -389 0 -388 506 0 506 0 -6 -27 c-3 -16 -114 -784 -247 -1708 -132
-924 -242 -1681 -244 -1683 -18 -19 -523 336 -760 535 -980 819 -1662 1985
-1934 3305 -82 401 -106 636 -98 977 30 1312 576 2844 1467 4116 235 334 418
554 695 830 992 993 2256 1586 3600 1689 123 9 686 -4 805 -18z m-24070 -2441
l0 -615 -80 0 -80 0 0 615 0 615 80 0 80 0 0 -615z m-1310 250 l0 -355 -75 0
-75 0 0 135 0 135 -45 0 -45 0 0 -135 0 -135 -80 0 -80 0 0 345 0 345 80 0 80
0 0 -145 0 -145 45 0 45 0 0 155 0 155 75 0 75 0 0 -355z m1060 -240 l0 -585
-80 0 -80 0 0 335 0 335 -85 0 -85 0 0 65 0 65 85 0 85 0 0 185 0 185 80 0 80
0 0 -585z m-1684 522 c102 -52 154 -144 154 -272 0 -88 -20 -150 -67 -204
-136 -160 -410 -120 -493 71 -32 74 -32 192 0 266 28 65 105 136 169 157 69
22 174 14 237 -18z m6184 -132 l0 -165 -310 0 -310 0 0 -45 0 -45 325 0 325 0
0 -65 0 -65 -405 0 -405 0 0 170 0 170 310 0 310 0 0 40 0 40 -310 0 -310 0 0
65 0 65 390 0 390 0 0 -165z m-4930 -58 c0 -210 9 -265 58 -364 26 -55 103
-144 152 -177 l25 -16 -58 -58 -58 -57 -72 76 c-40 42 -84 97 -97 122 -14 26
-27 47 -30 47 -3 0 -21 -28 -40 -62 -32 -56 -163 -208 -179 -208 -4 0 -33 23
-64 51 l-57 51 37 27 c64 47 133 129 163 194 52 110 60 163 60 374 l0 193 80
0 80 0 0 -193z m1562 111 c6 -89 36 -152 105 -222 77 -78 157 -123 300 -168
l43 -13 -46 -58 c-52 -67 -45 -66 -171 -7 -106 50 -195 110 -261 178 l-53 54
-57 -59 c-60 -63 -145 -124 -227 -165 -52 -26 -155 -63 -159 -57 -1 2 -21 27
-44 55 -23 29 -42 54 -42 57 0 3 33 15 73 27 107 32 201 86 267 152 76 76 104
133 108 226 l4 72 78 0 77 0 5 -72z m1823 57 c127 -33 217 -99 255 -186 28
-65 25 -181 -5 -244 -41 -83 -143 -154 -257 -176 l-58 -12 0 -103 0 -104 245
0 245 0 0 -65 0 -65 -570 0 -570 0 0 65 0 65 245 0 245 0 0 104 0 103 -58 12
c-119 23 -224 98 -263 187 -24 53 -28 142 -10 207 27 95 134 181 264 213 74
18 222 17 292 -1z m19184 -20 c575 -150 967 -603 1021 -1178 6 -63 10 -270 8
-472 l-3 -360 -182 -3 -182 -2 -3 442 c-4 419 -5 447 -26 523 -91 332 -343
588 -679 692 -82 25 -101 27 -273 27 -218 0 -283 -13 -445 -94 -297 -147 -495
-424 -534 -745 -6 -50 -11 -256 -11 -467 l0 -378 -180 0 -180 0 0 428 c0 473
6 537 62 707 133 399 450 712 861 850 160 53 243 65 457 61 163 -3 198 -7 289
-31z m-54 -379 c265 -80 480 -261 597 -501 90 -186 91 -197 96 -697 l3 -438
-965 0 -966 0 0 373 c0 402 8 507 47 632 50 159 122 273 249 396 114 109 206
167 349 218 117 42 181 51 345 47 133 -3 168 -7 245 -30z m-17405 -261 l0 -65
-135 0 -135 0 0 -200 0 -200 -80 0 -80 0 0 200 0 200 -140 0 -140 0 0 -200 0
-200 -80 0 -80 0 0 200 0 200 -135 0 -135 0 0 65 0 65 570 0 570 0 0 -65z
m-5740 -240 l0 -235 -75 0 -75 0 0 165 0 165 -330 0 -330 0 0 70 0 70 405 0
405 0 0 -235z m2680 20 l0 -65 -570 0 -570 0 0 65 0 65 570 0 570 0 0 -65z
m24021 -268 l27 -22 6 -319 7 -319 -77 6 c-42 3 -79 9 -82 12 -4 4 -8 141 -10
306 l-4 299 30 30 c36 36 67 38 103 7z m170 -152 l30 -16 -7 -247 c-4 -136 -7
-247 -8 -248 0 -1 -29 1 -63 4 l-63 4 0 253 c0 193 3 255 13 258 25 11 69 7
98 -8z m-328 -162 c4 -75 7 -180 7 -235 l0 -98 -35 0 c-19 0 -35 -4 -35 -9 0
-15 54 -20 284 -27 164 -5 217 -4 212 5 -4 6 -21 11 -37 11 l-30 0 7 178 c4
97 7 178 8 179 4 5 79 -16 86 -24 12 -12 29 -812 19 -875 -17 -105 -77 -141
-200 -120 -40 7 -92 21 -116 32 -43 19 -44 19 -120 0 -144 -37 -227 -23 -279
47 -33 44 -70 123 -82 175 -13 49 -31 345 -32 491 0 83 1 88 24 98 31 15 74 1
98 -32 11 -14 26 -73 39 -148 23 -135 34 -160 84 -191 62 -38 134 -127 151
-186 18 -62 40 -75 29 -17 -14 78 -54 130 -180 240 l-48 42 7 185 c8 220 21
390 31 405 3 6 28 11 54 11 l48 0 6 -137z m-1561 -30 c15 -13 18 -32 18 -116
l0 -99 -22 14 c-35 23 -61 75 -62 122 -1 88 24 118 66 79z m898 -23 c13 -49 5
-100 -24 -142 -39 -58 -46 -49 -46 59 0 102 7 123 42 123 12 0 21 -13 28 -40z
m-150 -85 c12 -14 15 -14 36 0 24 15 24 15 24 -17 -1 -114 -20 -271 -39 -313
-70 -158 -245 -335 -333 -335 -87 0 -278 181 -354 336 -23 47 -27 70 -32 183
-5 123 -4 129 16 140 11 6 26 27 32 46 l11 35 52 -30 c44 -25 52 -34 53 -61 1
-17 8 -35 15 -40 16 -10 39 7 39 30 0 14 15 16 113 16 61 0 124 3 138 7 24 7
27 5 33 -22 4 -21 11 -30 26 -30 20 0 36 36 28 62 -3 7 20 25 56 43 l61 30 6
-32 c3 -17 12 -39 19 -48z m-25280 -43 l65 -17 3 -91 3 -92 -63 26 c-53 23
-78 27 -153 26 -110 0 -164 -23 -229 -95 -56 -62 -80 -130 -80 -229 -1 -106
24 -171 89 -236 96 -96 234 -110 398 -41 l38 16 -3 -87 -3 -87 -55 -18 c-30
-11 -99 -21 -152 -24 -174 -10 -290 29 -386 131 -66 70 -100 145 -115 254 -36
268 107 502 343 564 83 22 216 22 300 0z m790 0 l65 -17 3 -91 3 -92 -63 26
c-53 23 -78 27 -153 26 -110 0 -164 -23 -229 -95 -56 -62 -80 -130 -80 -229
-1 -106 24 -171 89 -236 96 -96 234 -110 398 -41 l38 16 -3 -87 -3 -87 -55
-18 c-30 -11 -99 -21 -152 -24 -174 -10 -290 29 -386 131 -66 70 -100 145
-115 254 -36 268 107 502 343 564 83 22 216 22 300 0z m1425 -3 l40 -14 3 -88
3 -88 -40 21 c-141 71 -341 35 -341 -62 0 -61 23 -83 157 -151 164 -84 202
-112 237 -177 24 -43 29 -65 29 -119 0 -140 -75 -224 -232 -261 -65 -15 -265
-8 -331 12 l-45 14 -3 97 -3 97 48 -30 c160 -98 373 -67 373 54 0 55 -39 91
-165 151 -197 95 -258 164 -259 289 0 80 17 126 64 175 75 77 157 102 315 97
61 -2 128 -10 150 -17z m700 10 c98 -25 95 -22 95 -115 0 -46 -2 -84 -4 -84
-2 0 -28 11 -59 25 -105 48 -244 43 -302 -11 -19 -17 -25 -33 -25 -63 0 -55
37 -89 167 -151 200 -96 253 -157 253 -292 0 -141 -71 -221 -229 -258 -65 -15
-265 -8 -331 12 l-45 14 -3 97 -3 97 48 -30 c158 -97 373 -68 373 51 0 58 -36
91 -170 158 -147 73 -184 101 -221 165 -25 44 -29 61 -29 126 0 65 4 82 29
126 40 70 122 121 221 137 52 9 196 6 235 -4z m3653 1 c110 -26 224 -115 276
-218 76 -150 72 -372 -10 -523 -80 -146 -246 -229 -432 -216 -145 10 -259 75
-333 190 -58 90 -74 151 -74 287 0 160 31 249 120 348 85 94 194 141 330 141
44 0 99 -4 123 -9z m-7428 -461 c91 -249 166 -458 168 -465 3 -11 -17 -14 -95
-14 l-99 0 -37 115 -38 115 -174 0 -174 0 -38 -115 -37 -115 -99 0 c-75 0 -98
3 -95 13 3 6 81 216 173 465 l168 452 106 0 106 0 165 -451z m2410 376 l0 -75
-170 0 -170 0 0 -120 0 -120 160 0 160 0 0 -75 0 -75 -160 0 -160 0 0 -120 0
-120 180 0 180 0 0 -75 0 -75 -270 0 -270 0 0 465 0 465 260 0 260 0 0 -75z
m2630 0 l0 -75 -170 0 -170 0 0 -120 0 -120 160 0 160 0 0 -75 0 -75 -160 0
-160 0 0 -120 0 -120 180 0 180 0 0 -75 0 -75 -270 0 -270 0 0 465 0 465 260
0 260 0 0 -75z m635 60 c86 -23 132 -56 161 -118 65 -141 0 -307 -140 -358
l-32 -12 48 -45 c37 -35 258 -358 258 -378 0 -2 -47 -4 -104 -4 l-105 0 -67
113 c-142 236 -162 257 -249 257 l-45 0 0 -185 0 -185 -90 0 -90 0 0 465 0
465 198 0 c146 0 213 -4 257 -15z m870 -6 c115 -35 165 -107 165 -236 0 -105
-65 -198 -164 -234 l-32 -12 48 -45 c37 -35 258 -358 258 -378 0 -2 -47 -4
-104 -4 l-105 0 -67 113 c-142 236 -162 257 -254 257 l-40 0 0 -185 0 -185
-90 0 -90 0 0 465 0 465 204 0 c178 0 212 -3 271 -21z m1843 2 c33 -10 75 -29
92 -41 47 -33 80 -111 79 -185 0 -111 -45 -186 -138 -233 l-57 -28 47 -42 c29
-26 88 -106 153 -208 58 -91 106 -167 106 -170 0 -2 -47 -4 -104 -4 l-105 0
-67 113 c-142 236 -162 257 -249 257 l-45 0 0 -185 0 -185 -90 0 -90 0 0 465
0 465 204 0 c171 0 214 -3 264 -19z m17186 -451 c93 -108 187 -170 259 -170
63 0 149 59 227 156 l60 75 0 -85 0 -86 -160 -137 c-89 -76 -165 -140 -170
-141 -6 -2 -75 56 -154 130 l-145 133 0 115 0 115 22 -30 c12 -16 39 -50 61
-75z m-834 -130 c0 -162 -2 -190 -15 -190 -8 0 -15 -7 -15 -15 0 -9 -17 -20
-43 -27 -43 -11 -48 -18 -264 -327 -267 -382 -522 -764 -593 -886 l-52 -90 6
-70 c11 -138 108 -472 176 -604 l20 -41 -1085 0 -1085 0 0 1213 c0 668 3 1217
7 1220 3 4 667 7 1475 7 l1468 0 0 -190z m730 17 c0 -17 38 -59 145 -157 80
-73 144 -137 143 -142 -2 -4 -73 -57 -158 -118 l-155 -110 -6 30 c-4 17 -10
136 -14 264 -7 222 -6 234 11 245 28 16 34 13 34 -12z m700 -2 c10 -12 9 -66
-3 -271 -9 -141 -18 -258 -19 -259 -5 -5 -333 226 -333 234 0 5 72 70 160 145
88 75 161 144 163 152 4 18 16 18 32 -1z m-766 -212 c3 -42 6 -112 6 -157 0
-102 10 -186 22 -186 5 0 54 32 110 71 55 39 103 67 107 63 4 -5 30 -36 58
-69 l51 -60 -99 -625 c-54 -344 -98 -638 -99 -654 0 -19 30 -75 90 -170 50
-79 90 -146 90 -149 0 -11 -808 -8 -814 2 -3 5 -66 415 -141 912 -74 497 -137
916 -139 930 -4 23 0 27 31 37 41 13 53 9 53 -18 0 -10 4 -21 8 -24 5 -3 152
35 328 84 175 49 322 89 325 89 3 1 9 -33 13 -76z m1156 -23 c85 -24 156 -44
158 -45 1 -1 -4 -28 -13 -61 -41 -159 5 -325 122 -435 74 -70 148 -102 249
-107 98 -5 170 13 243 62 58 40 61 34 29 -51 -56 -151 -149 -215 -313 -216
-117 -1 -217 31 -271 88 -65 67 -113 228 -98 325 4 26 3 40 -4 40 -17 0 -24
-79 -14 -143 5 -32 6 -59 3 -60 -3 -2 -82 0 -176 4 -93 4 -220 7 -281 8 l-111
1 -11 -127 c-6 -70 -8 -131 -4 -135 14 -13 287 -118 308 -118 44 0 289 62 300
76 6 8 15 46 18 84 4 39 10 70 14 69 4 0 18 -13 30 -30 l24 -29 -75 -550 c-41
-302 -78 -554 -82 -559 -9 -15 -775 -15 -775 -1 0 6 48 79 107 162 l108 152
-107 636 -107 635 64 64 64 65 100 -69 c56 -38 103 -66 106 -64 2 3 10 95 16
205 6 109 12 204 14 211 4 12 19 9 365 -87z m587 -13 c40 -13 76 -26 79 -30
10 -10 -69 -27 -128 -27 -34 0 -80 9 -115 22 l-58 21 60 17 c80 23 79 23 162
-3z m-334 -130 c34 -56 71 -90 137 -124 49 -25 65 -28 150 -27 110 0 162 18
231 81 48 43 89 122 89 171 0 49 16 39 40 -25 78 -208 -13 -440 -208 -531 -49
-23 -70 -27 -152 -27 -82 0 -103 4 -153 27 -66 31 -155 115 -186 176 -53 105
-63 229 -26 337 27 79 39 87 47 31 3 -25 18 -66 31 -89z m128 86 c49 -26 63
-28 159 -28 90 0 111 3 147 23 23 12 56 22 72 22 16 0 41 4 55 10 23 8 26 7
26 -13 0 -40 -50 -126 -96 -163 -47 -39 -143 -74 -202 -74 -139 0 -275 102
-297 223 l-7 37 45 -4 c24 -2 69 -17 98 -33z m-2247 -478 c36 -242 66 -450 66
-462 0 -16 -50 -67 -176 -180 -96 -87 -184 -159 -195 -161 -28 -5 -156 35
-205 63 -23 14 -55 40 -72 60 -34 38 -42 42 -42 21 0 -22 87 -96 143 -121 29
-12 79 -28 112 -35 33 -7 65 -18 72 -24 35 -33 107 -342 101 -434 l-3 -47 -49
3 c-96 5 -168 -33 -206 -109 -27 -52 -27 -141 0 -185 12 -18 17 -35 11 -38
-12 -8 -120 13 -152 30 -69 35 -159 189 -219 374 -42 128 -89 320 -96 394 -5
60 -4 63 46 151 123 214 776 1163 790 1148 4 -4 38 -206 74 -448z m146 -964
c49 -333 59 -416 48 -422 -17 -11 -28 -11 -28 0 0 17 -53 72 -77 82 l-23 9 1
392 c0 229 4 385 9 373 5 -11 36 -206 70 -434z m-100 50 l0 -379 -67 -6 c-38
-4 -87 -9 -110 -13 l-43 -5 0 53 c0 80 -27 221 -65 339 l-34 105 67 60 c36 33
107 97 157 142 49 45 91 82 93 83 1 0 2 -170 2 -379z m75 -443 l27 -32 -28 -8
c-49 -13 -54 -29 -54 -184 0 -153 1 -156 59 -180 25 -10 22 -12 -57 -42 -45
-18 -114 -40 -153 -49 -70 -17 -70 -17 -115 7 -55 28 -184 164 -225 234 -35
62 -37 112 -8 173 32 66 78 93 164 94 38 0 93 4 120 9 28 4 93 8 147 9 l96 1
27 -32z m1155 -173 l0 -115 -177 2 -178 3 -3 99 c-1 55 0 106 2 113 4 10 45
13 181 13 l175 0 0 -115z m-25840 -885 c0 -73 -4 -120 -10 -120 -5 0 -10 25
-10 55 0 54 0 55 -30 55 -30 0 -30 -1 -30 -55 0 -30 -4 -55 -10 -55 -6 0 -10
45 -10 115 0 70 4 115 10 115 6 0 10 -22 10 -50 0 -49 1 -50 30 -50 30 0 30 1
30 55 0 30 5 55 10 55 6 0 10 -47 10 -120z m410 5 c0 -96 -3 -115 -15 -115
-12 0 -15 19 -15 115 0 96 3 115 15 115 12 0 15 -19 15 -115z m440 -85 c0
-171 -2 -200 -15 -200 -13 0 -15 29 -15 200 0 171 2 200 15 200 13 0 15 -29
15 -200z m410 0 c0 -171 -2 -200 -15 -200 -13 0 -15 21 -15 125 l0 125 -45 0
c-25 0 -45 5 -45 10 0 6 20 10 45 10 l45 0 0 65 c0 51 3 65 15 65 13 0 15 -29
15 -200z m340 175 c0 -24 3 -25 55 -25 30 0 55 -4 55 -10 0 -6 -47 -10 -120
-10 -73 0 -120 4 -120 10 0 6 25 10 55 10 52 0 55 1 55 25 0 14 5 25 10 25 6
0 10 -11 10 -25z m190 -120 c0 -90 -4 -145 -10 -145 -5 0 -10 20 -10 45 0 45
0 45 -35 45 -19 0 -35 5 -35 10 0 6 16 10 35 10 31 0 35 3 35 25 0 22 -4 25
-35 25 -19 0 -35 5 -35 10 0 6 16 10 35 10 l35 0 0 55 c0 30 5 55 10 55 6 0
10 -55 10 -145z m430 -55 c0 -127 -4 -200 -10 -200 -6 0 -10 40 -10 100 l0
100 -30 0 -30 0 0 -95 c0 -57 -4 -95 -10 -95 -6 0 -10 70 -10 190 0 120 4 190
10 190 6 0 10 -35 10 -85 l0 -85 30 0 30 0 0 90 c0 53 4 90 10 90 6 0 10 -73
10 -200z m520 145 c0 -54 0 -55 30 -55 17 0 30 -4 30 -10 0 -5 -13 -10 -30
-10 -30 0 -30 -1 -30 -55 0 -42 -3 -55 -15 -55 -12 0 -15 20 -15 120 0 100 3
120 15 120 12 0 15 -13 15 -55z m1270 -85 c0 -87 -4 -140 -10 -140 -6 0 -10
53 -10 140 0 87 4 140 10 140 6 0 10 -53 10 -140z m550 20 c0 -100 -2 -120
-15 -120 -12 0 -15 20 -15 120 0 100 3 120 15 120 13 0 15 -20 15 -120z m540
-80 c0 -127 -4 -200 -10 -200 -6 0 -10 73 -10 200 0 127 4 200 10 200 6 0 10
-73 10 -200z m420 0 c0 -171 -2 -200 -15 -200 -13 0 -15 29 -15 200 0 171 2
200 15 200 13 0 15 -29 15 -200z m410 0 c0 -127 -4 -200 -10 -200 -6 0 -10 73
-10 200 0 127 4 200 10 200 6 0 10 -73 10 -200z m960 0 c0 -127 -4 -200 -10
-200 -6 0 -10 73 -10 200 0 127 4 200 10 200 6 0 10 -73 10 -200z m420 85 c0
-70 -4 -115 -10 -115 -5 0 -10 16 -10 35 0 35 0 35 -46 35 -31 0 -54 -7 -71
-20 -33 -26 -83 -25 -117 1 -97 76 -5 209 109 157 14 -6 25 -15 25 -20 0 -4
23 -8 50 -8 47 0 50 2 50 25 0 14 5 25 10 25 6 0 10 -45 10 -115z m540 -85 c0
-127 -4 -200 -10 -200 -6 0 -10 73 -10 200 0 127 4 200 10 200 6 0 10 -73 10
-200z m220 175 c0 -24 3 -25 55 -25 30 0 55 -4 55 -10 0 -6 -47 -10 -120 -10
-73 0 -120 4 -120 10 0 6 25 10 55 10 52 0 55 1 55 25 0 14 5 25 10 25 6 0 10
-11 10 -25z m180 -45 l0 -70 30 0 c17 0 30 -4 30 -10 0 -5 -13 -10 -30 -10
l-30 0 0 -70 c0 -56 -3 -70 -15 -70 -13 0 -15 23 -15 150 0 127 2 150 15 150
12 0 15 -14 15 -70z m1390 -70 c0 -87 -4 -140 -10 -140 -6 0 -10 53 -10 140 0
87 4 140 10 140 6 0 10 -53 10 -140z m440 -60 c0 -171 -2 -200 -15 -200 -12 0
-15 18 -15 100 l0 100 -25 0 c-25 0 -25 0 -25 -95 0 -78 -3 -95 -15 -95 -13 0
-15 28 -15 190 0 162 2 190 15 190 12 0 15 -16 15 -85 0 -84 0 -85 25 -85 25
0 25 1 25 90 0 73 3 90 15 90 13 0 15 -29 15 -200z m520 95 c0 -63 -4 -105
-10 -105 -5 0 -10 11 -10 25 0 23 -4 25 -44 25 -24 0 -57 -7 -72 -15 -37 -19
-77 -19 -113 0 -32 16 -41 33 -41 75 0 42 9 59 41 75 36 19 90 19 115 0 10 -8
40 -15 67 -15 40 0 47 3 47 20 0 11 5 20 10 20 6 0 10 -42 10 -105z m960 0 c0
-63 -4 -105 -10 -105 -5 0 -10 23 -10 50 l0 50 -40 0 c-33 0 -40 -3 -40 -19 0
-11 -14 -31 -31 -45 -40 -34 -88 -34 -128 0 -26 21 -31 33 -31 69 0 36 5 48
31 69 18 15 43 26 60 26 43 0 88 -26 95 -55 5 -21 12 -25 45 -25 l39 0 0 45
c0 25 5 45 10 45 6 0 10 -42 10 -105z m850 -95 c0 -171 -2 -200 -15 -200 -13
0 -15 29 -15 200 0 171 2 200 15 200 13 0 15 -29 15 -200z m390 120 l0 -80 35
0 c19 0 35 -4 35 -10 0 -5 -16 -10 -35 -10 l-35 0 0 -110 c0 -67 -4 -110 -10
-110 -6 0 -10 73 -10 200 0 127 4 200 10 200 6 0 10 -33 10 -80z m-12020 -120
c0 -162 -2 -190 -15 -190 -12 0 -15 19 -15 110 l0 110 -30 0 c-17 0 -30 -5
-30 -12 0 -7 -14 -42 -30 -77 -21 -44 -34 -61 -41 -54 -7 7 -3 22 12 47 23 40
49 132 49 179 0 23 -4 27 -30 27 -16 0 -30 5 -30 10 0 6 18 10 40 10 l40 0 0
-55 c0 -52 1 -55 25 -55 24 0 25 2 25 70 0 56 3 70 15 70 13 0 15 -28 15 -190z
m2810 180 c0 -5 -30 -10 -67 -12 l-68 -3 32 -31 c18 -17 53 -37 78 -44 32 -9
43 -16 36 -23 -14 -14 -74 6 -118 39 l-32 25 -41 -30 c-45 -32 -97 -48 -111
-34 -6 6 12 16 45 27 34 10 63 27 77 44 l21 27 -66 3 c-36 2 -66 7 -66 12 0 6
58 10 140 10 82 0 140 -4 140 -10z m808 -10 c67 -63 -48 -137 -122 -79 -51 40
-16 99 59 99 28 0 48 -7 63 -20z m92 -95 c0 -70 -4 -115 -10 -115 -5 0 -10 5
-10 10 0 6 -18 10 -40 10 -22 0 -40 5 -40 10 0 6 18 10 40 10 l40 0 0 95 c0
57 4 95 10 95 6 0 10 -45 10 -115z m540 -75 c0 -120 -4 -190 -10 -190 -6 0
-10 43 -10 110 l0 110 -30 0 c-16 0 -30 5 -30 10 0 6 14 10 30 10 l30 0 0 70
c0 40 4 70 10 70 6 0 10 -70 10 -190z m2750 0 c0 -162 -2 -190 -15 -190 -12 0
-15 19 -15 115 l0 115 -35 0 c-19 0 -35 5 -35 10 0 6 16 10 35 10 l35 0 0 65
c0 51 3 65 15 65 13 0 15 -28 15 -190z m2070 160 c0 -29 2 -30 45 -30 25 0 45
-4 45 -10 0 -6 -40 -10 -100 -10 -60 0 -100 4 -100 10 0 6 20 10 45 10 43 0
45 1 45 30 0 17 5 30 10 30 6 0 10 -13 10 -30z m1052 -10 c16 -38 51 -62 122
-85 13 -4 16 -9 10 -15 -14 -14 -71 6 -117 42 l-38 30 -22 -20 c-27 -24 -101
-62 -122 -62 -31 0 -14 16 45 42 52 23 64 33 78 67 9 23 19 41 22 41 3 0 12
-18 22 -40z m958 10 c12 -29 94 -80 129 -80 12 0 12 -3 3 -12 -15 -15 -72 3
-119 38 l-32 24 -34 -23 c-50 -34 -94 -50 -114 -42 -14 5 -7 11 31 25 53 21
92 52 102 82 8 26 20 22 34 -12z m-12010 2 c0 -10 -12 -43 -27 -72 -30 -59
-116 -131 -134 -113 -6 6 5 19 33 37 47 29 83 75 93 119 l7 27 -66 0 c-37 0
-66 4 -66 10 0 6 33 10 80 10 71 0 80 -2 80 -18z m300 -54 l0 -71 100 7 c57 3
100 2 100 -3 0 -16 -30 -21 -126 -21 l-94 0 0 80 c0 47 4 80 10 80 6 0 10 -31
10 -72z m2320 37 l0 -35 65 0 65 0 0 35 c0 24 5 35 15 35 12 0 15 -17 15 -90
l0 -90 -90 0 -90 0 0 90 c0 53 4 90 10 90 6 0 10 -16 10 -35z m680 -30 l0 -65
-120 0 -120 0 0 65 0 65 120 0 120 0 0 -65z m733 41 c89 -83 -13 -208 -123
-151 -38 20 -57 74 -40 116 25 60 116 79 163 35z m2237 -31 l0 -55 110 0 c67
0 110 -4 110 -10 0 -6 -48 -10 -125 -10 l-125 0 0 65 c0 51 3 65 15 65 12 0
15 -13 15 -55z m3393 31 c89 -83 -13 -208 -123 -151 -38 20 -57 74 -40 116 25
60 116 79 163 35z m-8451 -51 c6 -69 40 -141 79 -169 12 -8 18 -19 14 -26 -10
-16 -61 34 -87 84 l-20 39 -28 -49 c-33 -58 -64 -89 -80 -79 -8 5 0 19 24 44
46 47 66 97 66 166 0 40 4 55 14 55 9 0 15 -19 18 -65z m4296 49 c92 -64 56
-254 -48 -254 -78 0 -125 111 -86 204 25 61 86 84 134 50z m3246 6 c89 -33 89
-137 0 -170 -57 -22 -135 -9 -174 30 -23 23 -27 77 -7 103 31 41 121 60 181
37z m3536 -106 l0 -117 100 5 c71 4 100 2 97 -6 -2 -7 -44 -12 -110 -14 l-107
-3 0 126 c0 77 4 125 10 125 6 0 10 -45 10 -116z m9420 -88 c0 -154 -3 -206
-12 -210 -10 -5 -10 -7 0 -12 9 -4 12 -46 12 -160 l0 -155 -82 3 -83 3 -3 368
-2 367 85 0 85 0 0 -204z m470 197 c0 -10 -102 -236 -113 -251 -7 -9 -50 -12
-171 -10 l-161 3 -3 133 -3 132 226 0 c124 0 225 -3 225 -7z m1580 -100 c-27
-60 -102 -225 -167 -368 l-118 -260 -472 -3 c-384 -2 -473 0 -473 11 0 7 28
76 63 152 l64 140 161 3 c97 1 162 6 162 12 0 6 -61 10 -155 10 -85 0 -155 2
-155 5 0 2 12 29 27 60 l27 55 313 0 c202 0 313 4 313 10 0 6 -108 10 -305 10
-174 0 -305 4 -305 9 0 5 25 66 56 135 l57 126 478 0 478 0 -49 -107z m1646
55 c-125 -282 -301 -666 -309 -675 -7 -10 -115 -13 -479 -13 -448 0 -470 1
-466 18 3 10 77 176 164 370 l159 352 477 0 478 0 -24 -52z m1641 40 c-30 -73
-312 -689 -323 -705 l-14 -23 -470 0 c-259 0 -470 4 -470 8 0 8 298 670 320
712 10 20 21 20 486 20 377 0 475 -3 471 -12z m1618 -5 c-3 -10 -34 -80 -68
-155 l-62 -138 -162 0 c-102 0 -163 -4 -163 -10 0 -6 58 -10 155 -10 85 0 155
-3 155 -7 -1 -5 -41 -96 -89 -203 l-89 -195 -476 -3 c-262 -1 -476 0 -476 3 0
6 317 711 327 728 2 4 218 7 480 7 448 0 475 -1 468 -17z m873 -350 l-3 -368
-250 -3 c-137 -1 -255 0 -262 2 -8 3 16 66 73 192 46 103 89 193 95 201 9 10
49 13 165 13 96 0 154 4 154 10 0 6 -58 10 -154 10 l-155 0 61 133 c33 72 64
142 69 155 8 21 14 22 109 22 l100 0 -2 -367z m-29838 252 c0 -82 -3 -105 -14
-105 -10 0 -12 19 -8 95 l5 95 -117 0 c-71 0 -116 4 -116 10 0 6 48 10 125 10
l125 0 0 -105z m1056 48 c-7 -59 -36 -135 -63 -165 -25 -28 -36 -10 -13 22 27
38 50 105 50 146 0 30 -3 34 -25 34 -14 0 -25 5 -25 10 0 6 19 10 41 10 l42 0
-7 -57z m1474 47 c0 -5 -16 -10 -35 -10 l-35 0 0 -50 c0 -57 20 -113 52 -147
15 -16 18 -27 12 -33 -13 -13 -33 9 -62 63 -17 33 -21 36 -26 19 -13 -39 -65
-102 -81 -96 -12 5 -8 14 18 45 38 44 57 97 57 158 l0 41 -40 0 c-22 0 -40 5
-40 10 0 6 37 10 90 10 53 0 90 -4 90 -10z m2880 0 c0 -6 -38 -10 -95 -10 -57
0 -95 4 -95 10 0 6 38 10 95 10 57 0 95 -4 95 -10z m870 0 c0 -5 -21 -10 -46
-10 l-47 0 6 -49 c7 -58 25 -97 68 -145 16 -19 25 -37 20 -40 -9 -6 -91 79
-91 95 0 18 -17 8 -28 -15 -16 -35 -73 -97 -83 -90 -5 3 6 25 26 48 39 48 65
112 65 162 0 34 -1 34 -45 34 -25 0 -45 5 -45 10 0 6 40 10 100 10 60 0 100
-4 100 -10z m960 0 c0 -5 -21 -10 -46 -10 l-47 0 6 -49 c7 -58 25 -97 68 -145
16 -19 25 -37 20 -40 -9 -6 -91 79 -91 95 0 18 -17 8 -28 -15 -16 -35 -73 -97
-83 -90 -5 3 6 25 26 48 39 48 65 112 65 162 0 34 -1 34 -45 34 -25 0 -45 5
-45 10 0 6 40 10 100 10 60 0 100 -4 100 -10z m920 0 c0 -5 -18 -10 -40 -10
l-40 0 0 -42 c1 -54 20 -108 54 -152 14 -19 22 -37 17 -40 -11 -7 -57 45 -66
74 -9 28 -20 25 -34 -7 -18 -42 -57 -86 -70 -79 -7 5 0 20 20 45 33 42 59 115
59 168 0 32 -1 33 -40 33 -22 0 -40 5 -40 10 0 6 37 10 90 10 53 0 90 -4 90
-10z m1380 -45 l0 -55 -115 0 -115 0 0 -35 0 -35 120 0 c73 0 120 -4 120 -10
0 -6 -28 -10 -65 -10 l-65 0 0 -40 0 -40 85 0 c50 0 85 -4 85 -10 0 -6 -67
-10 -180 -10 -113 0 -180 4 -180 10 0 6 35 10 85 10 l85 0 0 40 0 40 -60 0
-60 0 0 55 0 55 115 0 115 0 0 35 0 35 -115 0 c-70 0 -115 4 -115 10 0 6 50
10 130 10 l130 0 0 -55z m3620 45 c0 -6 -33 -10 -80 -10 l-80 0 0 -101 0 -102
95 6 c52 3 95 2 95 -3 0 -15 -31 -20 -126 -20 l-94 0 0 120 0 120 95 0 c57 0
95 -4 95 -10z m-7880 -84 c0 -24 3 -64 6 -90 6 -43 9 -46 35 -46 l29 0 0 90
c0 67 3 90 13 90 10 0 12 -20 9 -90 l-4 -90 26 0 c14 0 26 -4 26 -10 0 -6 -42
-10 -105 -10 -63 0 -105 4 -105 10 0 6 11 10 25 10 25 0 25 1 25 90 0 53 4 90
10 90 6 0 10 -20 10 -44z m-3186 24 c54 -20 58 -88 6 -115 -77 -40 -171 6
-153 74 11 42 88 64 147 41z m6487 -19 c16 -16 29 -37 29 -46 0 -9 -13 -30
-29 -46 -64 -64 -187 -16 -167 65 8 32 49 55 99 56 30 0 45 -7 68 -29z m1766
-21 c86 -79 -25 -202 -113 -126 -21 18 -28 32 -28 61 0 71 91 113 141 65z
m-5457 -9 c0 -10 -34 -21 -67 -21 -19 0 -23 -6 -23 -30 0 -20 -5 -30 -15 -30
-10 0 -15 10 -15 30 0 29 -2 30 -45 30 -77 0 -49 19 33 23 42 1 89 4 105 5 15
1 27 -2 27 -7z m-5020 -76 l0 -65 95 0 c57 0 95 -4 95 -10 0 -6 -67 -10 -180
-10 -113 0 -180 4 -180 10 0 6 30 10 70 10 l70 0 0 65 c0 51 3 65 15 65 12 0
15 -14 15 -65z m4210 45 c0 -6 -35 -10 -85 -10 -84 0 -85 0 -85 -25 0 -18 5
-25 20 -25 35 0 88 -27 95 -49 16 -53 -36 -91 -124 -91 -93 0 -143 36 -126 91
7 22 60 49 95 49 15 0 20 7 20 25 0 25 -1 25 -85 25 -50 0 -85 4 -85 10 0 6
67 10 180 10 113 0 180 -4 180 -10z m8390 -10 c0 -6 -67 -10 -180 -10 -113 0
-180 4 -180 10 0 6 67 10 180 10 113 0 180 -4 180 -10z m-8810 -20 c0 -6 -35
-10 -85 -10 l-85 0 0 -40 c0 -22 -4 -40 -10 -40 -5 0 -10 18 -10 40 l0 40 -85
0 c-50 0 -85 4 -85 10 0 6 67 10 180 10 113 0 180 -4 180 -10z m3180 0 c0 -6
-67 -10 -180 -10 -113 0 -180 4 -180 10 0 6 67 10 180 10 113 0 180 -4 180
-10z m4670 -10 c0 -6 -35 -10 -85 -10 l-85 0 0 -80 c0 -47 -4 -80 -10 -80 -6
0 -10 33 -10 80 l0 80 -85 0 c-50 0 -85 4 -85 10 0 6 67 10 180 10 113 0 180
-4 180 -10z m260 -30 c0 -29 2 -30 45 -30 43 0 45 1 45 30 0 17 5 30 10 30 6
0 10 -33 10 -80 l0 -80 -70 0 -70 0 0 80 c0 64 3 80 15 80 10 0 15 -10 15 -30z
m215 -11 c4 -23 20 -55 36 -74 16 -18 25 -36 20 -39 -5 -3 -22 9 -38 27 l-28
33 -32 -35 c-24 -28 -34 -33 -43 -24 -9 8 -7 14 9 22 27 15 51 62 51 101 0 44
17 37 25 -11z m-8827 11 c26 -16 32 -26 32 -55 0 -49 -43 -75 -123 -75 -90 0
-143 38 -129 93 14 54 153 78 220 37z m7892 -20 l0 -40 -105 0 -105 0 0 -25 0
-25 110 0 c67 0 110 -4 110 -10 0 -6 -48 -10 -125 -10 l-125 0 0 45 0 45 110
0 c103 0 110 1 110 20 0 19 -7 20 -110 20 -67 0 -110 4 -110 10 0 6 47 10 120
10 l120 0 0 -40z m-10600 -45 c0 -43 -4 -75 -10 -75 -6 0 -10 28 -10 65 l0 65
-120 0 c-73 0 -120 4 -120 10 0 6 50 10 130 10 l130 0 0 -75z m410 5 l0 -70
-125 0 -125 0 0 70 0 70 125 0 125 0 0 -70z m6900 -5 c0 -43 -4 -75 -10 -75
-6 0 -10 28 -10 65 l0 65 -115 0 c-70 0 -115 4 -115 10 0 6 48 10 125 10 l125
0 0 -75z m4430 50 l0 -25 100 0 100 0 0 25 c0 14 5 25 10 25 6 0 10 -30 10
-70 l0 -70 -120 0 -120 0 0 70 c0 40 4 70 10 70 6 0 10 -11 10 -25z m-7950
-35 l0 -50 115 0 c70 0 115 -4 115 -10 0 -6 -50 -10 -130 -10 l-130 0 0 60 c0
47 3 60 15 60 11 0 15 -12 15 -50z m530 30 c0 -19 7 -20 105 -20 98 0 105 1
105 20 0 11 7 20 15 20 12 0 15 -14 15 -65 l0 -65 -135 0 -135 0 0 65 c0 51 3
65 15 65 8 0 15 -9 15 -20z m5100 -30 l0 -50 115 0 c70 0 115 -4 115 -10 0 -6
-50 -10 -130 -10 l-130 0 0 60 c0 47 3 60 15 60 11 0 15 -12 15 -50z m-7850
-5 l0 -45 120 0 c73 0 120 -4 120 -10 0 -6 -52 -10 -135 -10 l-135 0 0 55 c0
42 3 55 15 55 11 0 15 -12 15 -45z m1360 0 l0 -45 115 0 c70 0 115 -4 115 -10
0 -6 -50 -10 -130 -10 l-130 0 0 55 c0 42 3 55 15 55 11 0 15 -12 15 -45z
m3190 0 l0 -45 110 0 c67 0 110 -4 110 -10 0 -6 -48 -10 -125 -10 l-125 0 0
55 c0 42 3 55 15 55 11 0 15 -12 15 -45z m1910 -10 l0 -45 115 0 c70 0 115 -4
115 -10 0 -6 -50 -10 -130 -10 l-130 0 0 55 c0 42 3 55 15 55 11 0 15 -12 15
-45z m690 5 c0 -6 -67 -10 -180 -10 -113 0 -180 4 -180 10 0 6 67 10 180 10
113 0 180 -4 180 -10z m4235 -20 c0 -8 -8 -16 -17 -18 -13 -2 -18 3 -18 18 0
15 5 20 18 18 9 -2 17 -10 17 -18z m8945 15 c0 -2 -11 -29 -24 -60 l-25 -55
-135 0 -136 0 0 60 0 60 160 0 c88 0 160 -2 160 -5z m-67 -152 c-4 -10 -34
-79 -68 -153 l-61 -135 -60 0 -59 0 -3 153 -3 152 130 0 c120 0 130 -1 124
-17z m-21833 -178 c0 -122 -2 -145 -15 -145 -12 0 -15 13 -15 60 l0 60 -35 0
c-19 0 -35 5 -35 10 0 6 16 10 35 10 31 0 35 3 35 25 0 22 -4 25 -35 25 -19 0
-35 5 -35 10 0 6 16 10 35 10 34 0 35 1 35 40 0 29 4 40 15 40 13 0 15 -23 15
-145z m376 112 c30 -35 30 -39 0 -74 -23 -26 -29 -28 -104 -28 -71 0 -83 3
-106 24 -32 30 -33 51 -3 78 32 30 45 33 121 30 61 -2 71 -6 92 -30z m1004
-167 c0 -171 -2 -200 -15 -200 -12 0 -15 16 -15 85 l0 85 -35 0 c-19 0 -35 5
-35 10 0 6 16 10 35 10 35 0 35 0 35 45 0 45 0 45 -35 45 -19 0 -35 5 -35 10
0 6 16 10 35 10 l35 0 0 50 c0 38 4 50 15 50 13 0 15 -29 15 -200z m540 0 c0
-127 -4 -200 -10 -200 -6 0 -10 42 -10 105 l0 105 -30 0 -30 0 0 -100 c0 -60
-4 -100 -10 -100 -6 0 -10 70 -10 190 0 120 4 190 10 190 6 0 10 -33 10 -80
l0 -80 30 0 30 0 0 85 c0 50 4 85 10 85 6 0 10 -73 10 -200z m400 140 l0 -60
30 0 c17 0 30 -4 30 -10 0 -5 -13 -10 -30 -10 l-30 0 0 -75 c0 -60 -3 -75 -15
-75 -13 0 -15 23 -15 145 0 122 2 145 15 145 12 0 15 -13 15 -60z m250 25 l0
-35 50 0 c28 0 50 -4 50 -10 0 -6 -45 -10 -115 -10 -70 0 -115 4 -115 10 0 6
23 10 50 10 l50 0 0 35 c0 24 5 35 15 35 10 0 15 -11 15 -35z m180 -165 c0
-127 -4 -200 -10 -200 -6 0 -10 73 -10 200 0 127 4 200 10 200 6 0 10 -73 10
-200z m550 0 c0 -171 -2 -200 -15 -200 -13 0 -15 29 -15 200 0 171 2 200 15
200 13 0 15 -29 15 -200z m640 175 c0 -24 3 -25 55 -25 30 0 55 -4 55 -10 0
-6 -47 -10 -120 -10 -73 0 -120 4 -120 10 0 6 25 10 55 10 52 0 55 1 55 25 0
14 5 25 10 25 6 0 10 -11 10 -25z m620 -175 c0 -171 -2 -200 -15 -200 -13 0
-15 29 -15 200 0 171 2 200 15 200 13 0 15 -29 15 -200z m390 120 l0 -80 35 0
c19 0 35 -4 35 -10 0 -5 -16 -10 -35 -10 l-35 0 0 -110 c0 -67 -4 -110 -10
-110 -6 0 -10 73 -10 200 0 127 4 200 10 200 6 0 10 -33 10 -80z m540 -120 c0
-171 -2 -200 -15 -200 -13 0 -15 29 -15 200 0 171 2 200 15 200 13 0 15 -29
15 -200z m420 0 c0 -127 -4 -200 -10 -200 -6 0 -10 73 -10 200 0 127 4 200 10
200 6 0 10 -73 10 -200z m520 130 l0 -70 30 0 c17 0 30 -4 30 -10 0 -5 -13
-10 -30 -10 l-30 0 0 -65 c0 -37 -4 -65 -10 -65 -6 0 -10 55 -10 145 0 90 4
145 10 145 6 0 10 -30 10 -70z m240 35 l0 -35 55 0 c30 0 55 -4 55 -10 0 -6
-47 -10 -120 -10 -73 0 -120 4 -120 10 0 6 25 10 55 10 l55 0 0 35 c0 19 5 35
10 35 6 0 10 -16 10 -35z m170 -55 l0 -90 35 0 c19 0 35 -4 35 -10 0 -5 -16
-10 -35 -10 l-35 0 0 -100 c0 -60 -4 -100 -10 -100 -6 0 -10 73 -10 200 0 127
4 200 10 200 6 0 10 -37 10 -90z m440 -110 c0 -127 -4 -200 -10 -200 -6 0 -10
33 -10 80 l0 80 -46 0 c-38 0 -51 -5 -74 -30 -48 -51 -126 -34 -149 32 -25 70
-8 165 34 192 35 23 79 20 113 -9 22 -19 41 -25 76 -25 l46 0 0 40 c0 22 5 40
10 40 6 0 10 -73 10 -200z m540 100 c0 -60 -4 -100 -10 -100 -6 0 -10 40 -10
100 0 60 4 100 10 100 6 0 10 -40 10 -100z m850 -100 c0 -171 -2 -200 -15
-200 -13 0 -15 29 -15 200 0 171 2 200 15 200 13 0 15 -29 15 -200z m530 85
c0 -70 -4 -115 -10 -115 -6 0 -10 45 -10 115 0 70 4 115 10 115 6 0 10 -45 10
-115z m840 -85 c0 -127 -4 -200 -10 -200 -6 0 -10 73 -10 200 0 127 4 200 10
200 6 0 10 -73 10 -200z m420 55 c0 -90 -4 -145 -10 -145 -5 0 -10 25 -10 55
l0 55 -45 0 c-38 0 -45 -3 -45 -20 0 -19 -7 -20 -90 -20 l-90 0 0 100 0 100
90 0 c83 0 90 -1 90 -20 0 -17 7 -20 45 -20 43 0 45 1 45 30 0 17 5 30 10 30
6 0 10 -55 10 -145z m540 0 c0 -90 -4 -145 -10 -145 -5 0 -10 25 -10 55 l0 55
-47 0 c-27 -1 -59 -7 -73 -15 -67 -38 -160 8 -160 80 0 29 28 71 55 83 38 17
75 15 113 -8 18 -11 50 -20 72 -20 38 0 40 2 40 30 0 17 5 30 10 30 6 0 10
-55 10 -145z m410 90 c0 -52 1 -55 25 -55 14 0 25 -4 25 -10 0 -5 -11 -10 -25
-10 -24 0 -25 -3 -25 -55 0 -42 -3 -55 -15 -55 -12 0 -15 20 -15 120 0 100 3
120 15 120 12 0 15 -13 15 -55z m960 -145 c0 -127 -4 -200 -10 -200 -6 0 -10
73 -10 200 0 127 4 200 10 200 6 0 10 -73 10 -200z m420 0 c0 -127 -4 -200
-10 -200 -6 0 -10 73 -10 200 0 127 4 200 10 200 6 0 10 -73 10 -200z m520
120 l0 -80 35 0 c19 0 35 -4 35 -10 0 -5 -16 -10 -35 -10 l-35 0 0 -110 c0
-67 -4 -110 -10 -110 -6 0 -10 73 -10 200 0 127 4 200 10 200 6 0 10 -33 10
-80z m430 30 c0 -49 1 -50 30 -50 17 0 30 -4 30 -10 0 -5 -13 -10 -30 -10 -29
0 -30 -2 -30 -45 0 -33 -4 -45 -15 -45 -12 0 -15 18 -15 105 0 87 3 105 15
105 11 0 15 -12 15 -50z m440 -150 c0 -171 -2 -200 -15 -200 -13 0 -15 29 -15
200 0 171 2 200 15 200 13 0 15 -29 15 -200z m390 120 l0 -80 35 0 c19 0 35
-4 35 -10 0 -5 -16 -10 -35 -10 l-35 0 0 -110 c0 -67 -4 -110 -10 -110 -6 0
-10 73 -10 200 0 127 4 200 10 200 6 0 10 -33 10 -80z m530 25 c0 -52 1 -55
25 -55 14 0 25 -4 25 -10 0 -5 -11 -10 -25 -10 -23 0 -25 -3 -25 -50 0 -38 -4
-50 -15 -50 -12 0 -15 19 -15 115 0 96 3 115 15 115 12 0 15 -13 15 -55z m410
-25 l0 -80 35 0 c19 0 35 -4 35 -10 0 -5 -16 -10 -35 -10 l-35 0 0 -110 c0
-67 -4 -110 -10 -110 -6 0 -10 73 -10 200 0 127 4 200 10 200 6 0 10 -33 10
-80z m250 55 c0 -24 3 -25 55 -25 30 0 55 -4 55 -10 0 -6 -47 -10 -120 -10
-73 0 -120 4 -120 10 0 6 25 10 55 10 52 0 55 1 55 25 0 14 5 25 10 25 6 0 10
-11 10 -25z m620 -175 c0 -171 -2 -200 -15 -200 -13 0 -15 29 -15 200 0 171 2
200 15 200 13 0 15 -29 15 -200z m390 120 l0 -80 35 0 c19 0 35 -4 35 -10 0
-5 -16 -10 -35 -10 l-35 0 0 -110 c0 -67 -4 -110 -10 -110 -6 0 -10 73 -10
200 0 127 4 200 10 200 6 0 10 -33 10 -80z m-17440 50 c0 -19 7 -20 100 -20
93 0 100 1 100 20 0 11 5 20 10 20 6 0 10 -28 10 -65 l0 -65 -120 0 -120 0 0
65 c0 37 4 65 10 65 6 0 10 -9 10 -20z m4260 -10 c12 -29 94 -80 129 -80 12 0
12 -3 3 -12 -15 -15 -72 3 -119 38 l-32 24 -34 -23 c-50 -34 -94 -50 -114 -42
-14 5 -7 11 31 25 53 21 92 52 102 82 8 26 20 22 34 -12z m530 -25 c0 -54 0
-55 30 -55 17 0 30 -4 30 -10 0 -5 -13 -10 -30 -10 -29 0 -30 -2 -30 -45 0
-33 -4 -45 -15 -45 -12 0 -15 19 -15 110 0 91 3 110 15 110 12 0 15 -13 15
-55z m1720 -135 c0 -120 -4 -190 -10 -190 -6 0 -10 43 -10 110 l0 110 -29 0
c-26 0 -29 -4 -35 -41 -13 -79 -82 -114 -131 -65 -45 45 -45 177 1 223 49 49
115 17 130 -63 5 -29 10 -34 35 -34 l29 0 0 70 c0 40 4 70 10 70 6 0 10 -70
10 -190z m1890 180 c0 -5 -21 -10 -46 -10 -45 0 -46 -1 -40 -26 10 -40 36 -73
69 -90 20 -11 26 -19 19 -26 -12 -12 -62 19 -86 53 -13 20 -15 19 -58 -27 -29
-30 -49 -44 -57 -39 -9 5 -2 16 24 38 34 27 65 79 65 107 0 5 -20 10 -45 10
-25 0 -45 5 -45 10 0 6 40 10 100 10 60 0 100 -4 100 -10z m1341 -19 c88 -88
-38 -215 -136 -137 -26 21 -30 31 -30 71 0 39 5 51 28 71 41 35 99 33 138 -5z
m4559 -26 l0 -55 -75 0 -75 0 0 -31 0 -32 90 5 c50 3 90 2 90 -2 0 -15 -32
-20 -121 -20 l-89 0 0 50 0 50 75 0 75 0 0 35 0 35 -75 0 c-43 0 -75 4 -75 10
0 6 37 10 90 10 l90 0 0 -55z m2310 0 c0 -54 0 -55 30 -55 17 0 30 -4 30 -10
0 -5 -13 -10 -30 -10 -29 0 -30 -2 -30 -45 0 -33 -4 -45 -15 -45 -12 0 -15 19
-15 110 0 91 3 110 15 110 12 0 15 -13 15 -55z m-13720 35 c0 -6 -33 -10 -80
-10 l-80 0 0 -70 0 -70 90 0 c53 0 90 -4 90 -10 0 -6 -42 -10 -105 -10 l-105
0 0 90 0 90 95 0 c57 0 95 -4 95 -10z m6000 -55 l0 -65 -120 0 -120 0 0 65 0
65 120 0 120 0 0 -65z m3080 15 l0 -50 -75 0 -75 0 0 -36 0 -37 90 5 c50 3 90
2 90 -2 0 -15 -32 -20 -121 -20 l-89 0 0 55 0 55 75 0 75 0 0 30 0 30 -75 0
c-43 0 -75 4 -75 10 0 6 37 10 90 10 l90 0 0 -50z m650 40 c0 -5 -30 -10 -67
-12 l-68 -3 35 -38 c19 -21 53 -44 75 -51 40 -14 59 -36 30 -36 -24 0 -87 35
-118 65 l-27 28 -24 -26 c-39 -42 -136 -84 -136 -59 0 4 27 20 60 35 41 19 65
37 75 57 l16 30 -66 0 c-37 0 -65 4 -65 10 0 6 53 10 140 10 82 0 140 -4 140
-10z m3034 -17 c-13 -57 -59 -117 -114 -150 -57 -35 -70 -39 -70 -23 0 5 17
18 38 29 38 19 112 92 112 110 0 5 3 16 6 25 5 14 -5 16 -70 16 -44 0 -76 4
-76 10 0 6 37 10 90 10 l90 0 -6 -27z m-15074 7 c0 -6 -43 -10 -110 -10 -67 0
-110 4 -110 10 0 6 43 10 110 10 67 0 110 -4 110 -10z m4380 -106 l0 -117 100
5 c71 4 100 2 97 -6 -2 -7 -44 -12 -110 -14 l-107 -3 0 126 c0 77 4 125 10
125 6 0 10 -45 10 -116z m1038 100 c92 -64 56 -254 -48 -254 -78 0 -125 111
-86 204 25 61 86 84 134 50z m1012 -49 c0 -45 -4 -65 -12 -65 -9 0 -12 16 -10
55 l4 55 -86 0 c-51 0 -86 4 -86 10 0 6 38 10 95 10 l95 0 0 -65z m2168 49
c92 -64 56 -254 -48 -254 -78 0 -125 111 -86 204 25 61 86 84 134 50z m1036 6
c89 -33 89 -137 0 -170 -57 -22 -135 -9 -174 30 -23 23 -27 77 -7 103 31 41
121 60 181 37z m308 -55 c6 -69 40 -141 79 -169 12 -8 18 -19 14 -26 -10 -16
-61 34 -87 84 l-19 38 -20 -39 c-24 -49 -73 -98 -89 -88 -8 5 -1 19 23 44 47
49 64 86 73 159 3 34 10 62 14 62 4 0 10 -29 12 -65z m2330 0 c6 -69 40 -141
79 -169 12 -8 18 -19 14 -26 -10 -16 -61 34 -87 84 l-19 38 -20 -39 c-24 -49
-73 -98 -89 -88 -8 5 -1 19 23 44 47 49 64 86 73 159 3 34 10 62 14 62 4 0 10
-29 12 -65z m868 10 l0 -55 70 0 70 0 0 55 c0 42 3 55 15 55 13 0 15 -21 15
-130 l0 -130 -95 0 -95 0 0 130 c0 80 4 130 10 130 6 0 10 -25 10 -55z m860
-61 l0 -117 100 5 c71 4 100 2 97 -6 -2 -7 -44 -12 -110 -14 l-107 -3 0 126
c0 77 4 125 10 125 6 0 10 -45 10 -116z m1430 61 c0 -68 17 -110 64 -163 20
-22 33 -43 28 -46 -12 -7 -87 74 -97 104 -8 24 -8 24 -22 -6 -20 -39 -84 -105
-95 -97 -6 3 4 19 21 37 43 45 71 112 71 174 0 39 4 52 15 52 12 0 15 -13 15
-55z m770 -61 l0 -117 100 5 c71 4 100 2 97 -6 -2 -7 -44 -12 -110 -14 l-107
-3 0 126 c0 77 4 125 10 125 6 0 10 -45 10 -116z m-15180 96 c0 -6 -43 -10
-110 -10 l-110 0 0 -70 0 -70 115 0 c70 0 115 -4 115 -10 0 -6 -48 -10 -125
-10 l-125 0 0 90 0 90 120 0 c73 0 120 -4 120 -10z m310 -60 l0 -70 -65 0 -65
0 0 -56 0 -57 75 6 c40 4 76 3 79 -2 10 -15 -22 -21 -105 -21 l-79 0 0 75 0
75 70 0 70 0 0 50 0 50 -70 0 c-40 0 -70 4 -70 10 0 6 33 10 80 10 l80 0 0
-70z m530 60 c0 -6 -28 -10 -65 -10 l-65 0 0 -106 0 -107 71 7 c55 5 70 3 67
-6 -3 -9 -31 -14 -86 -16 l-82 -3 0 126 0 125 80 0 c47 0 80 -4 80 -10z m1440
0 c0 -5 -20 -10 -45 -10 -36 0 -45 -3 -45 -17 0 -31 36 -79 69 -93 28 -11 44
-40 23 -40 -12 0 -88 55 -97 70 -5 8 -12 5 -21 -8 -22 -32 -84 -66 -96 -54 -7
7 1 15 25 27 38 18 62 47 73 89 6 25 5 26 -45 26 -28 0 -51 5 -51 10 0 6 42
10 105 10 63 0 105 -4 105 -10z m1650 0 c0 -6 -33 -10 -80 -10 l-80 0 0 -101
0 -102 95 6 c52 3 95 2 95 -3 0 -15 -31 -20 -126 -20 l-94 0 0 120 0 120 95 0
c57 0 95 -4 95 -10z m7814 -27 c-10 -58 -48 -125 -92 -165 -50 -45 -75 -59
-90 -49 -8 5 4 18 36 39 49 32 92 84 111 135 21 54 17 57 -64 57 -43 0 -75 4
-75 10 0 6 37 10 90 10 l91 0 -7 -37z m1806 27 c0 -6 -33 -10 -80 -10 l-80 0
0 -101 0 -102 95 6 c52 3 95 2 95 -3 0 -15 -31 -20 -126 -20 l-94 0 0 120 0
120 95 0 c57 0 95 -4 95 -10z m2200 0 c0 -6 -33 -10 -80 -10 l-80 0 0 -101 0
-102 95 6 c52 3 95 2 95 -3 0 -15 -31 -20 -126 -20 l-94 0 0 120 0 120 95 0
c57 0 95 -4 95 -10z m250 -115 c0 -63 -4 -105 -10 -105 -6 0 -10 42 -10 105 0
63 4 105 10 105 6 0 10 -42 10 -105z m-17170 20 l0 -65 40 0 40 0 0 65 c0 50
3 65 15 65 12 0 13 -12 8 -65 l-6 -65 37 0 c20 0 36 -4 36 -10 0 -6 -48 -10
-125 -10 -77 0 -125 4 -125 10 0 6 13 10 29 10 l29 0 -6 65 c-4 56 -2 65 12
65 13 0 16 -11 16 -65z m4245 20 c30 -29 31 -49 5 -75 -39 -39 -130 -39 -162
1 -24 29 -23 45 7 74 19 20 34 25 75 25 41 0 56 -5 75 -25z m11820 0 c30 -29
31 -49 5 -75 -39 -39 -130 -39 -162 1 -24 29 -23 45 7 74 19 20 34 25 75 25
41 0 56 -5 75 -25z m-13216 -10 c16 -8 31 -22 35 -30 34 -90 -56 -166 -143
-120 -32 16 -41 33 -41 79 0 71 78 108 149 71z m3631 -25 l0 -40 70 0 c40 0
70 -4 70 -10 0 -6 -52 -10 -135 -10 -83 0 -135 4 -135 10 0 6 25 10 55 10 l55
0 0 40 c0 22 5 40 10 40 6 0 10 -18 10 -40z m487 16 c22 -19 28 -32 28 -66 0
-34 -6 -47 -28 -66 -41 -35 -100 -33 -138 5 -85 85 46 206 138 127z m-3147
-16 l0 -30 85 0 c50 0 85 -4 85 -10 0 -6 -67 -10 -180 -10 -113 0 -180 4 -180
10 0 6 35 10 85 10 l85 0 0 30 c0 17 5 30 10 30 6 0 10 -13 10 -30z m-3970
-30 c0 -6 -35 -10 -85 -10 -78 0 -85 -2 -85 -20 0 -18 7 -20 55 -20 l55 0 0
-45 0 -45 -110 0 c-103 0 -110 -1 -110 -20 0 -19 7 -20 115 -20 70 0 115 -4
115 -10 0 -6 -48 -10 -125 -10 l-125 0 0 40 0 40 110 0 110 0 0 25 0 25 -110
0 c-67 0 -110 4 -110 10 0 6 25 10 55 10 48 0 55 2 55 20 0 18 -7 20 -85 20
-50 0 -85 4 -85 10 0 6 67 10 180 10 113 0 180 -4 180 -10z m840 0 c0 -6 -67
-10 -180 -10 -113 0 -180 4 -180 10 0 6 67 10 180 10 113 0 180 -4 180 -10z
m2670 -65 l0 -45 65 0 c37 0 65 -4 65 -10 0 -6 -51 -10 -134 -10 -79 0 -137 4
-141 10 -4 6 18 10 59 10 l66 0 0 45 c0 25 5 45 10 45 6 0 10 -20 10 -45z
m5160 35 c0 -6 -35 -10 -85 -10 l-85 0 0 -40 c0 -22 -4 -40 -10 -40 -5 0 -10
18 -10 40 l0 40 -85 0 c-50 0 -85 4 -85 10 0 6 67 10 180 10 113 0 180 -4 180
-10z m-460 -50 l0 -50 -105 0 -105 0 0 -25 0 -25 115 0 c70 0 115 -4 115 -10
0 -6 -50 -10 -130 -10 l-130 0 0 45 0 45 110 0 110 0 0 30 0 30 -110 0 c-67 0
-110 4 -110 10 0 6 47 10 120 10 l120 0 0 -50z m4170 40 c0 -6 -35 -10 -85
-10 l-85 0 0 -80 c0 -47 -4 -80 -10 -80 -6 0 -10 33 -10 80 l0 80 -85 0 c-50
0 -85 4 -85 10 0 6 67 10 180 10 113 0 180 -4 180 -10z m-11600 -50 l0 -40
-110 0 -110 0 0 -25 0 -25 115 0 c70 0 115 -4 115 -10 0 -6 -48 -10 -125 -10
l-125 0 0 45 0 45 110 0 c103 0 110 1 110 20 0 19 -7 20 -110 20 -67 0 -110 4
-110 10 0 6 47 10 120 10 l120 0 0 -40z m8629 5 c6 -19 23 -43 37 -54 16 -13
21 -22 13 -26 -6 -4 -22 4 -36 18 l-26 25 -38 -40 c-21 -22 -43 -37 -49 -33
-7 4 2 19 24 41 21 20 38 48 42 69 8 44 17 44 33 0z m150 -4 c6 -22 25 -51 43
-66 21 -18 28 -29 21 -36 -7 -7 -22 1 -47 25 l-36 36 -33 -36 c-20 -22 -39
-34 -45 -30 -8 5 0 19 23 41 20 20 37 49 41 70 8 46 18 44 33 -4z m4351 14 c0
-25 0 -25 95 -25 95 0 95 0 95 25 0 16 6 25 15 25 12 0 15 -15 15 -75 l0 -75
-125 0 -125 0 0 75 c0 60 3 75 15 75 9 0 15 -9 15 -25z m-11420 -40 l0 -55
115 0 c70 0 115 -4 115 -10 0 -6 -48 -10 -125 -10 l-125 0 0 65 c0 37 4 65 10
65 6 0 10 -25 10 -55z m1556 39 c89 -43 34 -124 -85 -124 -93 0 -143 36 -126
91 15 45 143 65 211 33z m244 -9 c0 -25 0 -25 95 -25 95 0 95 0 95 25 0 16 6
25 15 25 12 0 15 -14 15 -70 l0 -70 -125 0 -125 0 0 70 c0 56 3 70 15 70 9 0
15 -9 15 -25z m11200 -45 l0 -70 -120 0 -120 0 0 70 0 70 120 0 120 0 0 -70z
m620 45 c0 -25 0 -25 95 -25 95 0 95 0 95 25 0 16 6 25 15 25 12 0 15 -14 15
-70 l0 -70 -125 0 -125 0 0 70 c0 56 3 70 15 70 9 0 15 -9 15 -25z m-9510 -35
l0 -50 115 0 c70 0 115 -4 115 -10 0 -6 -50 -10 -130 -10 l-130 0 0 60 c0 47
3 60 15 60 11 0 15 -12 15 -50z m4570 0 l0 -50 115 0 c70 0 115 -4 115 -10 0
-6 -48 -10 -125 -10 l-125 0 0 60 c0 33 4 60 10 60 6 0 10 -22 10 -50z m630
-20 c0 -56 -3 -70 -15 -70 -12 0 -15 13 -15 60 l0 60 -115 0 c-70 0 -115 4
-115 10 0 6 50 10 130 10 l130 0 0 -70z m-11630 10 l0 -50 115 0 c70 0 115 -4
115 -10 0 -6 -50 -10 -130 -10 l-130 0 0 60 c0 47 3 60 15 60 11 0 15 -12 15
-50z m8220 5 l0 -45 115 0 c70 0 115 -4 115 -10 0 -6 -50 -10 -130 -10 l-130
0 0 55 c0 42 3 55 15 55 11 0 15 -12 15 -45z m2250 -5 l0 -50 115 0 c70 0 115
-4 115 -10 0 -6 -50 -10 -130 -10 l-130 0 0 60 c0 47 3 60 15 60 11 0 15 -12
15 -50z m12730 23 c0 -10 117 -827 259 -1816 l258 -1797 -196 2 -195 3 -258
1795 c-141 987 -257 1803 -258 1813 0 16 16 17 195 17 179 0 195 -1 195 -17z
m1636 -20 c-3 -21 -85 -690 -182 -1488 -195 -1608 -168 -1447 -266 -1594 l-43
-65 -209 -92 c-115 -52 -218 -101 -228 -111 -38 -34 -48 -69 -48 -168 l0 -95
-59 0 c-58 0 -59 0 -65 33 -9 50 -516 3593 -516 3606 0 8 225 11 811 11 l811
0 -6 -37z m1508 -1458 l339 -1494 -8 -233 c-5 -128 -9 -277 -10 -331 l0 -97
-800 0 -801 0 -12 318 c-11 275 -11 326 2 387 8 39 161 715 340 1503 179 789
326 1436 326 1438 0 2 64 4 143 4 l142 0 339 -1495z m2076 1486 c0 -5 -117
-824 -260 -1821 -143 -997 -260 -1814 -260 -1816 0 -2 -6 -4 -13 -4 -11 0 -16
26 -20 101 -10 161 0 152 -340 300 l-148 64 -64 97 c-37 57 -66 114 -69 135
-9 58 -356 2920 -356 2937 0 14 80 16 765 16 446 0 765 -4 765 -9z m604 -23
c14 -80 496 -3461 502 -3525 l7 -73 -192 0 c-105 0 -191 2 -191 4 0 7 -509
3560 -515 3594 l-6 32 194 0 195 0 6 -32z m-27814 -8 c0 -6 -67 -10 -180 -10
-113 0 -180 4 -180 10 0 6 67 10 180 10 113 0 180 -4 180 -10z m8670 0 c0 -6
-67 -10 -180 -10 -113 0 -180 4 -180 10 0 6 67 10 180 10 113 0 180 -4 180
-10z m-4555 -20 c0 -8 -8 -16 -17 -18 -13 -2 -18 3 -18 18 0 15 5 20 18 18 9
-2 17 -10 17 -18z m9620 0 c0 -8 -8 -16 -17 -18 -13 -2 -18 3 -18 18 0 15 5
20 18 18 9 -2 17 -10 17 -18z m2211 9 c10 -17 -13 -36 -27 -22 -12 12 -4 33
11 33 5 0 12 -5 16 -11z m13639 -301 c7 -17 135 -717 135 -734 0 -18 -69 -19
-75 -1 -3 6 -27 139 -54 295 -27 156 -52 286 -55 289 -18 18 -12 -30 34 -294
27 -159 50 -293 50 -296 0 -4 -106 -7 -235 -7 -129 0 -235 3 -235 8 0 11 130
725 135 740 3 9 42 12 150 12 107 0 147 -3 150 -12z m-27995 -474 l0 -65 22
15 c32 22 81 20 103 -4 27 -30 36 -200 11 -200 -13 0 -16 13 -16 80 0 67 -3
83 -20 100 -26 26 -46 25 -75 -5 -22 -21 -25 -33 -25 -100 0 -60 -3 -75 -15
-75 -13 0 -15 24 -15 160 0 136 2 160 15 160 12 0 15 -14 15 -66z m1090 -6 l0
-71 23 21 c48 45 130 14 143 -53 18 -97 -84 -186 -148 -128 -17 15 -18 15 -18
0 0 -10 -7 -17 -15 -17 -13 0 -15 24 -15 160 0 136 2 160 15 160 12 0 15 -15
15 -72z m5560 0 l0 -71 23 21 c48 45 130 14 143 -53 18 -97 -84 -186 -148
-128 -17 15 -18 15 -18 0 0 -10 -7 -17 -15 -17 -13 0 -15 24 -15 160 0 136 2
160 15 160 12 0 15 -15 15 -72z m1900 -88 c0 -100 -4 -160 -10 -160 -5 0 -10
7 -10 16 0 15 -2 15 -25 0 -66 -43 -145 3 -145 85 0 96 80 151 148 103 l22
-15 0 65 c0 37 4 66 10 66 6 0 10 -60 10 -160z m370 0 c0 -100 -4 -160 -10
-160 -5 0 -10 7 -10 16 0 15 -2 15 -25 0 -66 -43 -145 3 -145 85 0 96 80 151
148 103 l22 -15 0 65 c0 37 4 66 10 66 6 0 10 -60 10 -160z m3510 0 c0 -136
-2 -160 -15 -160 -13 0 -15 24 -15 160 0 136 2 160 15 160 13 0 15 -24 15
-160z m-8346 142 c8 -13 -11 -35 -23 -28 -16 10 -14 36 3 36 8 0 17 -4 20 -8z
m270 0 c8 -13 -11 -35 -23 -28 -16 10 -14 36 3 36 8 0 17 -4 20 -8z m230 0 c8
-13 -11 -35 -23 -28 -16 10 -14 36 3 36 8 0 17 -4 20 -8z m7060 0 c8 -13 -11
-35 -23 -28 -16 10 -14 36 3 36 8 0 17 -4 20 -8z m1830 0 c8 -13 -11 -35 -23
-28 -16 10 -14 36 3 36 8 0 17 -4 20 -8z m420 0 c8 -13 -11 -35 -23 -28 -16
10 -14 36 3 36 8 0 17 -4 20 -8z m-17043 -25 c48 -32 60 -62 56 -134 -2 -50
-8 -68 -27 -89 -38 -40 -74 -54 -140 -54 l-60 0 0 150 0 150 69 0 c54 0 75 -5
102 -23z m1709 -27 c0 -27 3 -30 30 -30 17 0 30 -4 30 -10 0 -5 -13 -10 -30
-10 l-30 0 0 -79 c0 -76 12 -107 36 -99 5 2 11 -1 14 -7 3 -5 -7 -11 -22 -13
-42 -5 -58 28 -58 120 0 63 -3 78 -15 78 -8 0 -15 5 -15 10 0 6 7 10 15 10 9
0 15 9 15 23 0 13 3 27 7 30 14 15 23 6 23 -23z m1320 0 c0 -27 3 -30 30 -30
17 0 30 -4 30 -10 0 -5 -13 -10 -30 -10 l-30 0 0 -79 c0 -76 12 -107 36 -99 5
2 11 -1 14 -7 3 -5 -7 -11 -22 -13 -42 -5 -58 28 -58 120 0 63 -3 78 -15 78
-8 0 -15 5 -15 10 0 6 7 10 15 10 9 0 15 9 15 23 0 13 3 27 7 30 14 15 23 6
23 -23z m4570 0 c0 -27 3 -30 30 -30 17 0 30 -4 30 -10 0 -5 -13 -10 -30 -10
l-30 0 0 -79 c0 -76 12 -107 36 -99 5 2 11 -1 14 -7 3 -5 -7 -11 -22 -13 -42
-5 -58 28 -58 120 0 63 -3 78 -15 78 -8 0 -15 5 -15 10 0 6 7 10 15 10 9 0 15
9 15 23 0 13 3 27 7 30 14 15 23 6 23 -23z m1960 0 c0 -27 3 -30 30 -30 17 0
30 -4 30 -10 0 -5 -13 -10 -30 -10 l-30 0 0 -79 c0 -76 12 -107 36 -99 5 2 11
-1 14 -7 3 -5 -7 -11 -22 -13 -42 -5 -58 28 -58 120 0 63 -3 78 -15 78 -8 0
-15 5 -15 10 0 6 7 10 15 10 9 0 15 9 15 23 0 13 3 27 7 30 14 15 23 6 23 -23z
m3190 0 c0 -27 3 -30 30 -30 17 0 30 -4 30 -10 0 -5 -13 -10 -30 -10 l-30 0 0
-79 c0 -76 12 -107 36 -99 5 2 11 -1 14 -7 3 -5 -7 -11 -22 -13 -42 -5 -58 28
-58 120 0 63 -3 78 -15 78 -8 0 -15 5 -15 10 0 6 7 10 15 10 9 0 15 9 15 23 0
13 3 27 7 30 14 15 23 6 23 -23z m3590 0 c0 -27 3 -30 30 -30 17 0 30 -4 30
-10 0 -5 -13 -10 -30 -10 l-30 0 0 -79 c0 -76 12 -107 36 -99 5 2 11 -1 14 -7
3 -5 -7 -11 -22 -13 -42 -5 -58 28 -58 120 0 63 -3 78 -15 78 -8 0 -15 5 -15
10 0 6 7 10 15 10 9 0 15 9 15 23 0 13 3 27 7 30 14 15 23 6 23 -23z m570 0
c0 -27 3 -30 30 -30 17 0 30 -4 30 -10 0 -5 -13 -10 -30 -10 l-30 0 0 -79 c0
-76 12 -107 36 -99 5 2 11 -1 14 -7 3 -5 -7 -11 -22 -13 -42 -5 -58 28 -58
120 0 63 -3 78 -15 78 -8 0 -15 5 -15 10 0 6 7 10 15 10 9 0 15 9 15 23 0 13
3 27 7 30 14 15 23 6 23 -23z m-16645 -55 c16 -15 25 -36 25 -55 l0 -30 -75 0
c-72 0 -75 -1 -75 -23 0 -44 50 -71 101 -57 18 5 35 7 38 4 12 -12 -35 -34
-72 -34 -55 0 -97 43 -97 100 0 46 21 94 47 109 33 19 82 13 108 -14z m211 4
c26 -29 35 -199 10 -199 -9 0 -16 7 -16 16 0 14 -2 14 -22 0 -70 -49 -157 26
-97 83 12 11 43 22 70 26 50 7 54 11 43 39 -11 30 -41 38 -79 22 -30 -13 -35
-13 -35 -1 0 38 95 48 126 14z m104 4 c0 -15 1 -15 18 0 10 10 28 17 40 17 32
0 27 -28 -5 -32 -38 -4 -53 -39 -53 -120 0 -54 -3 -68 -15 -68 -12 0 -15 19
-15 110 0 91 3 110 15 110 8 0 15 -7 15 -17z m387 0 c3 -8 -11 -11 -42 -10
-59 2 -85 -24 -85 -88 0 -61 48 -97 104 -76 20 8 26 7 26 -3 0 -17 -22 -26
-67 -26 -53 0 -93 45 -93 105 0 40 5 52 35 82 30 30 40 34 76 31 23 -2 44 -8
46 -15z m193 2 c59 -30 64 -133 9 -179 -65 -55 -155 -22 -166 61 -13 101 69
163 157 118z m130 -67 c0 -46 4 -89 9 -97 12 -19 68 -18 88 2 11 11 18 41 21
96 2 45 8 81 13 81 5 0 9 -49 9 -110 0 -67 -4 -110 -10 -110 -5 0 -10 7 -10
16 0 14 -2 14 -22 0 -35 -25 -83 -20 -107 10 -17 22 -21 41 -21 110 0 68 3 84
15 84 12 0 15 -16 15 -82z m318 63 c4 -11 -3 -12 -30 -7 -39 7 -75 -12 -65
-36 3 -9 25 -26 49 -39 35 -20 44 -30 46 -56 2 -23 -3 -35 -20 -47 -36 -25
-108 -19 -108 9 0 11 8 11 32 4 39 -11 64 -4 73 19 7 18 2 23 -65 65 -43 28
-49 58 -18 87 26 24 98 25 106 1z m342 4 c59 -30 64 -133 9 -179 -65 -55 -155
-22 -166 61 -13 101 69 163 157 118z m130 -2 c0 -15 1 -15 18 0 24 21 70 22
93 1 16 -15 20 -15 41 0 31 22 74 20 98 -4 17 -17 20 -33 20 -110 0 -73 -3
-90 -15 -90 -12 0 -15 17 -15 90 0 78 -2 91 -19 100 -28 14 -38 13 -61 -10
-17 -17 -20 -33 -20 -100 0 -64 -3 -80 -15 -80 -12 0 -15 16 -15 80 0 68 -3
83 -21 101 -11 11 -27 18 -36 15 -8 -3 -18 -6 -22 -6 -17 0 -31 -55 -31 -120
0 -56 -3 -70 -15 -70 -12 0 -15 19 -15 110 0 91 3 110 15 110 8 0 15 -7 15
-17z m475 -8 c16 -15 25 -36 25 -55 l0 -30 -75 0 c-72 0 -75 -1 -75 -23 0 -44
50 -71 101 -57 18 5 35 7 38 4 12 -12 -35 -34 -72 -34 -55 0 -97 43 -97 100 0
46 21 94 47 109 33 19 82 13 108 -14z m105 8 c0 -15 1 -15 18 0 10 10 28 17
40 17 32 0 27 -28 -5 -32 -38 -4 -53 -39 -53 -120 0 -54 -3 -68 -15 -68 -12 0
-15 19 -15 110 0 91 3 110 15 110 8 0 15 -7 15 -17z m845 -8 c16 -15 25 -36
25 -55 l0 -30 -75 0 c-72 0 -75 -1 -75 -23 0 -44 50 -71 101 -57 18 5 35 7 38
4 12 -12 -35 -34 -72 -34 -55 0 -97 43 -97 100 0 46 21 94 47 109 33 19 82 13
108 -14z m216 -67 l25 -91 28 91 c29 96 49 116 60 60 3 -18 14 -60 24 -93 l18
-60 24 93 c15 57 29 92 37 92 17 0 18 4 -19 -116 -19 -63 -37 -104 -44 -104
-12 0 -30 47 -50 132 -3 16 -9 26 -13 24 -4 -3 -18 -39 -31 -80 -13 -42 -29
-76 -36 -76 -7 0 -24 36 -38 83 -38 127 -40 137 -24 137 8 0 22 -33 39 -92z
m414 67 c16 -15 25 -36 25 -55 l0 -30 -75 0 c-72 0 -75 -1 -75 -23 0 -44 50
-71 101 -57 18 5 35 7 38 4 12 -12 -35 -34 -72 -34 -55 0 -97 43 -97 100 0 46
21 94 47 109 33 19 82 13 108 -14z m355 9 c0 -15 2 -15 25 0 55 36 129 5 141
-59 18 -97 -73 -179 -144 -129 l-22 15 0 -65 c0 -52 -3 -66 -15 -66 -13 0 -15
24 -15 160 0 136 2 160 15 160 8 0 15 -7 15 -16z m346 -5 c26 -29 35 -199 10
-199 -9 0 -16 7 -16 16 0 14 -2 14 -22 0 -70 -49 -157 26 -97 83 12 11 43 22
70 26 50 7 54 11 43 39 -11 30 -41 38 -79 22 -30 -13 -35 -13 -35 -1 0 38 95
48 126 14z m217 10 c16 -9 22 -9 25 0 2 6 8 11 13 11 5 0 9 -58 9 -131 l0
-131 -29 -29 c-24 -23 -38 -29 -73 -29 -41 0 -90 21 -77 34 3 3 21 1 41 -4 60
-17 100 7 113 68 7 35 0 39 -29 17 -57 -43 -136 8 -136 86 0 45 21 93 47 108
24 14 69 14 96 0z m262 -14 c16 -15 25 -36 25 -55 l0 -30 -75 0 c-72 0 -75 -1
-75 -23 0 -44 50 -71 101 -57 18 5 35 7 38 4 12 -12 -35 -34 -72 -34 -55 0
-97 43 -97 100 0 46 21 94 47 109 33 19 82 13 108 -14z m219 -63 c15 -45 31
-82 35 -82 4 0 21 37 38 83 18 48 37 83 46 85 20 4 -95 -287 -120 -305 -23
-18 -53 -16 -53 2 0 8 8 15 19 15 24 0 39 19 47 56 4 21 -6 60 -34 132 -33 84
-37 103 -24 100 11 -2 27 -32 46 -86z m316 73 c59 -30 64 -133 9 -179 -65 -55
-155 -22 -166 61 -13 101 69 163 157 118z m130 -67 c0 -46 4 -89 9 -97 12 -19
68 -18 88 2 11 11 18 41 21 96 2 45 8 81 13 81 5 0 9 -49 9 -110 0 -67 -4
-110 -10 -110 -5 0 -10 7 -10 16 0 14 -2 14 -22 0 -35 -25 -83 -20 -107 10
-17 22 -21 41 -21 110 0 68 3 84 15 84 12 0 15 -16 15 -82z m456 61 c26 -29
35 -199 10 -199 -9 0 -16 7 -16 16 0 14 -2 14 -22 0 -70 -49 -157 26 -97 83
12 11 43 22 70 26 50 7 54 11 43 39 -11 30 -41 38 -79 22 -30 -13 -35 -13 -35
-1 0 38 95 48 126 14z m114 4 c0 -15 1 -15 18 0 10 10 28 17 40 17 32 0 27
-28 -5 -32 -38 -4 -53 -39 -53 -120 0 -54 -3 -68 -15 -68 -12 0 -15 19 -15
110 0 91 3 110 15 110 8 0 15 -7 15 -17z m255 -8 c16 -15 25 -36 25 -55 l0
-30 -75 0 c-72 0 -75 -1 -75 -23 0 -44 50 -71 101 -57 18 5 35 7 38 4 12 -12
-35 -34 -72 -34 -55 0 -97 43 -97 100 0 46 21 94 47 109 33 19 82 13 108 -14z
m231 -70 c25 -71 34 -86 40 -70 4 11 19 51 33 89 24 62 52 99 50 64 -1 -29
-78 -203 -90 -206 -9 -2 -28 35 -56 108 -33 88 -38 110 -25 108 10 -2 28 -36
48 -93z m194 -15 c0 -91 -3 -110 -15 -110 -12 0 -15 19 -15 110 0 91 3 110 15
110 12 0 15 -19 15 -110z m188 91 c4 -11 -3 -12 -30 -7 -39 7 -75 -12 -65 -36
3 -9 25 -26 49 -39 35 -20 44 -30 46 -56 2 -23 -3 -35 -20 -47 -36 -25 -108
-19 -108 9 0 11 8 11 32 4 39 -11 64 -4 73 19 7 18 2 23 -65 65 -43 28 -49 58
-18 87 26 24 98 25 106 1z m82 -91 c0 -91 -3 -110 -15 -110 -12 0 -15 19 -15
110 0 91 3 110 15 110 12 0 15 -19 15 -110z m230 0 c0 -91 -3 -110 -15 -110
-12 0 -15 19 -15 110 0 91 3 110 15 110 12 0 15 -19 15 -110z m90 94 c0 -14 2
-14 22 0 30 21 71 20 99 -3 20 -16 23 -29 27 -110 4 -79 2 -91 -12 -91 -13 0
-16 13 -16 80 0 67 -3 83 -20 100 -26 26 -46 25 -75 -5 -22 -21 -25 -33 -25
-100 0 -60 -3 -75 -15 -75 -12 0 -15 19 -15 110 0 91 3 110 15 110 8 0 15 -7
15 -16z m343 5 c16 -9 22 -9 25 0 2 6 8 11 13 11 5 0 9 -58 9 -131 l0 -131
-29 -29 c-24 -23 -38 -29 -73 -29 -41 0 -90 21 -77 34 3 3 21 1 41 -4 60 -17
100 7 113 68 7 35 0 39 -29 17 -57 -43 -136 8 -136 86 0 45 21 93 47 108 24
14 69 14 96 0z m374 -6 c3 -8 -11 -11 -42 -10 -59 2 -85 -24 -85 -88 0 -61 48
-97 104 -76 20 8 26 7 26 -3 0 -17 -22 -26 -67 -26 -53 0 -93 45 -93 105 0 40
5 52 35 82 30 30 40 34 76 31 23 -2 44 -8 46 -15z m189 -4 c26 -29 35 -199 10
-199 -9 0 -16 7 -16 16 0 14 -2 14 -22 0 -70 -49 -157 26 -97 83 12 11 43 22
70 26 50 7 54 11 43 39 -11 30 -41 38 -79 22 -30 -13 -35 -13 -35 -1 0 38 95
48 126 14z m104 5 c0 -14 2 -14 22 0 30 21 71 20 99 -3 20 -16 23 -29 27 -110
4 -79 2 -91 -12 -91 -13 0 -16 13 -16 80 0 67 -3 83 -20 100 -26 26 -46 25
-75 -5 -22 -21 -25 -33 -25 -100 0 -60 -3 -75 -15 -75 -12 0 -15 19 -15 110 0
91 3 110 15 110 8 0 15 -7 15 -16z m240 0 c0 -14 2 -14 22 0 30 21 71 20 99
-3 20 -16 23 -29 27 -110 4 -79 2 -91 -12 -91 -13 0 -16 13 -16 80 0 67 -3 83
-20 100 -26 26 -46 25 -75 -5 -22 -21 -25 -33 -25 -100 0 -60 -3 -75 -15 -75
-12 0 -15 19 -15 110 0 91 3 110 15 110 8 0 15 -7 15 -16z m350 1 c59 -30 64
-133 9 -179 -65 -55 -155 -22 -166 61 -13 101 69 163 157 118z m745 -10 c16
-15 25 -36 25 -55 l0 -30 -75 0 c-72 0 -75 -1 -75 -23 0 -44 50 -71 101 -57
18 5 35 7 38 4 12 -12 -35 -34 -72 -34 -55 0 -97 43 -97 100 0 46 21 94 47
109 33 19 82 13 108 -14z m335 10 c59 -30 64 -133 9 -179 -65 -55 -155 -22
-166 61 -13 101 69 163 157 118z m130 -1 c0 -15 2 -15 25 0 55 36 129 5 141
-59 18 -97 -73 -179 -144 -129 l-22 15 0 -65 c0 -52 -3 -66 -15 -66 -13 0 -15
24 -15 160 0 136 2 160 15 160 8 0 15 -7 15 -16z m365 -9 c16 -15 25 -36 25
-55 l0 -30 -75 0 c-72 0 -75 -1 -75 -23 0 -44 50 -71 101 -57 18 5 35 7 38 4
12 -12 -35 -34 -72 -34 -55 0 -97 43 -97 100 0 46 21 94 47 109 33 19 82 13
108 -14z m105 9 c0 -14 2 -14 22 0 30 21 71 20 99 -3 20 -16 23 -29 27 -110 4
-79 2 -91 -12 -91 -13 0 -16 13 -16 80 0 67 -3 83 -20 100 -26 26 -46 25 -75
-5 -22 -21 -25 -33 -25 -100 0 -60 -3 -75 -15 -75 -12 0 -15 19 -15 110 0 91
3 110 15 110 8 0 15 -7 15 -16z m345 -9 c16 -15 25 -36 25 -55 l0 -30 -75 0
c-72 0 -75 -1 -75 -23 0 -44 50 -71 101 -57 18 5 35 7 38 4 12 -12 -35 -34
-72 -34 -55 0 -97 43 -97 100 0 46 21 94 47 109 33 19 82 13 108 -14z m715
-57 c0 -46 4 -89 9 -97 12 -19 68 -18 88 2 11 11 18 41 21 96 2 45 8 81 13 81
5 0 9 -49 9 -110 0 -67 -4 -110 -10 -110 -5 0 -10 7 -10 16 0 14 -2 14 -22 0
-35 -25 -83 -20 -107 10 -17 22 -21 41 -21 110 0 68 3 84 15 84 12 0 15 -16
15 -82z m355 57 c16 -15 25 -36 25 -55 l0 -30 -75 0 c-72 0 -75 -1 -75 -23 0
-44 50 -71 101 -57 18 5 35 7 38 4 12 -12 -35 -34 -72 -34 -55 0 -97 43 -97
100 0 46 21 94 47 109 33 19 82 13 108 -14z m475 10 c59 -30 64 -133 9 -179
-65 -55 -155 -22 -166 61 -13 101 69 163 157 118z m244 -73 c15 -45 31 -82 35
-82 4 0 21 37 38 83 18 48 37 83 46 85 20 4 -95 -287 -120 -305 -23 -18 -53
-16 -53 2 0 8 8 15 19 15 24 0 39 19 47 56 4 21 -6 60 -34 132 -33 84 -37 103
-24 100 11 -2 27 -32 46 -86z m316 73 c59 -30 64 -133 9 -179 -65 -55 -155
-22 -166 61 -13 101 69 163 157 118z m130 -67 c0 -46 4 -89 9 -97 12 -19 68
-18 88 2 11 11 18 41 21 96 2 45 8 81 13 81 5 0 9 -49 9 -110 0 -67 -4 -110
-10 -110 -5 0 -10 7 -10 16 0 14 -2 14 -22 0 -35 -25 -83 -20 -107 10 -17 22
-21 41 -21 110 0 68 3 84 15 84 12 0 15 -16 15 -82z m240 65 c0 -15 1 -15 18
0 10 10 28 17 40 17 32 0 27 -28 -5 -32 -38 -4 -53 -39 -53 -120 0 -54 -3 -68
-15 -68 -12 0 -15 19 -15 110 0 91 3 110 15 110 8 0 15 -7 15 -17z m260 0 c0
-15 1 -15 18 0 10 10 28 17 40 17 32 0 27 -28 -5 -32 -38 -4 -53 -39 -53 -120
0 -54 -3 -68 -15 -68 -12 0 -15 19 -15 110 0 91 3 110 15 110 8 0 15 -7 15
-17z m255 -8 c16 -15 25 -36 25 -55 l0 -30 -75 0 c-72 0 -75 -1 -75 -23 0 -44
50 -71 101 -57 18 5 35 7 38 4 12 -12 -35 -34 -72 -34 -55 0 -97 43 -97 100 0
46 21 94 47 109 33 19 82 13 108 -14z m208 14 c16 -9 22 -9 25 0 2 6 8 11 13
11 5 0 9 -58 9 -131 l0 -131 -29 -29 c-24 -23 -38 -29 -73 -29 -41 0 -90 21
-77 34 3 3 21 1 41 -4 60 -17 100 7 113 68 7 35 0 39 -29 17 -57 -43 -136 8
-136 86 0 45 21 93 47 108 24 14 69 14 96 0z m147 -99 c0 -91 -3 -110 -15
-110 -12 0 -15 19 -15 110 0 91 3 110 15 110 12 0 15 -19 15 -110z m210 95
c59 -30 64 -133 9 -179 -65 -55 -155 -22 -166 61 -13 101 69 163 157 118z
m130 -1 c0 -14 2 -14 22 0 30 21 71 20 99 -3 20 -16 23 -29 27 -110 4 -79 2
-91 -12 -91 -13 0 -16 13 -16 80 0 67 -3 83 -20 100 -26 26 -46 25 -75 -5 -22
-21 -25 -33 -25 -100 0 -60 -3 -75 -15 -75 -12 0 -15 19 -15 110 0 91 3 110
15 110 8 0 15 -7 15 -16z m346 -5 c26 -29 35 -199 10 -199 -9 0 -16 7 -16 16
0 14 -2 14 -22 0 -70 -49 -157 26 -97 83 12 11 43 22 70 26 50 7 54 11 43 39
-11 30 -41 38 -79 22 -30 -13 -35 -13 -35 -1 0 38 95 48 126 14z m314 4 c0
-15 1 -15 18 0 10 10 28 17 40 17 32 0 27 -28 -5 -32 -38 -4 -53 -39 -53 -120
0 -54 -3 -68 -15 -68 -12 0 -15 19 -15 110 0 91 3 110 15 110 8 0 15 -7 15
-17z m265 -8 c16 -15 25 -36 25 -55 l0 -30 -75 0 c-72 0 -75 -1 -75 -23 0 -44
50 -71 101 -57 18 5 35 7 38 4 12 -12 -35 -34 -72 -34 -55 0 -97 43 -97 100 0
46 21 94 47 109 33 19 82 13 108 -14z m193 6 c4 -11 -3 -12 -30 -7 -39 7 -75
-12 -65 -36 3 -9 25 -26 49 -39 35 -20 44 -30 46 -56 2 -23 -3 -35 -20 -47
-36 -25 -108 -19 -108 9 0 11 8 11 32 4 39 -11 64 -4 73 19 7 18 2 23 -65 65
-43 28 -49 58 -18 87 26 24 98 25 106 1z m222 2 c0 -15 1 -15 18 0 10 10 28
17 40 17 32 0 27 -28 -5 -32 -38 -4 -53 -39 -53 -120 0 -54 -3 -68 -15 -68
-12 0 -15 19 -15 110 0 91 3 110 15 110 8 0 15 -7 15 -17z m150 -93 c0 -91 -3
-110 -15 -110 -12 0 -15 19 -15 110 0 91 3 110 15 110 12 0 15 -19 15 -110z
m207 93 c3 -8 -11 -11 -42 -10 -59 2 -85 -24 -85 -88 0 -61 48 -97 104 -76 20
8 26 7 26 -3 0 -17 -22 -26 -67 -26 -53 0 -93 45 -93 105 0 40 5 52 35 82 30
30 40 34 76 31 23 -2 44 -8 46 -15z m213 -93 c0 -91 -3 -110 -15 -110 -12 0
-15 19 -15 110 0 91 3 110 15 110 12 0 15 -19 15 -110z m210 95 c59 -30 64
-133 9 -179 -65 -55 -155 -22 -166 61 -13 101 69 163 157 118z m130 -1 c0 -14
2 -14 22 0 30 21 71 20 99 -3 20 -16 23 -29 27 -110 4 -79 2 -91 -12 -91 -13
0 -16 13 -16 80 0 67 -3 83 -20 100 -26 26 -46 25 -75 -5 -22 -21 -25 -33 -25
-100 0 -60 -3 -75 -15 -75 -12 0 -15 19 -15 110 0 91 3 110 15 110 8 0 15 -7
15 -16z m318 -3 c4 -11 -3 -12 -30 -7 -39 7 -75 -12 -65 -36 3 -9 25 -26 49
-39 35 -20 44 -30 46 -56 2 -23 -3 -35 -20 -47 -36 -25 -108 -19 -108 9 0 11
8 11 32 4 39 -11 64 -4 73 19 7 18 2 23 -65 65 -43 28 -49 58 -18 87 26 24 98
25 106 1z m5762 -1381 c105 -734 193 -1347 196 -1362 l6 -28 -401 0 c-221 0
-401 3 -401 8 -1 4 88 629 197 1390 133 931 200 1374 205 1355 4 -15 93 -629
198 -1363z m5825 -8 c107 -750 195 -1368 195 -1373 0 -5 -165 -9 -400 -9
l-401 0 6 33 c3 17 91 631 195 1362 105 732 193 1341 197 1355 4 15 8 19 10
10 2 -8 91 -629 198 -1378z m-26489 1213 c-12 -46 -26 -75 -36 -75 -10 0 -6
31 11 78 12 31 33 29 25 -3z m14999 -5 c0 -8 -8 -16 -17 -18 -13 -2 -18 3 -18
18 0 15 5 20 18 18 9 -2 17 -10 17 -18z m13419 -224 c15 -89 30 -173 33 -185
l5 -21 -306 0 c-243 0 -306 3 -306 13 0 7 14 87 30 177 17 90 30 168 30 172 0
4 110 8 243 8 l244 0 27 -164z m76 160 c0 -2 14 -76 30 -164 39 -209 40 -202
-10 -202 -22 0 -40 1 -40 3 0 1 -13 79 -30 172 -16 94 -30 176 -30 183 0 7 15
12 40 12 22 0 40 -2 40 -4z m-28490 -161 c0 -8 -6 -12 -14 -9 -19 7 -46 -23
-46 -52 0 -20 5 -24 30 -24 17 0 30 -4 30 -10 0 -5 -13 -10 -30 -10 l-30 0 0
-100 c0 -60 -4 -100 -10 -100 -6 0 -10 40 -10 100 0 93 -1 100 -20 100 -11 0
-20 5 -20 10 0 6 9 10 20 10 16 0 20 7 20 32 0 17 7 40 17 50 20 22 63 24 63
3z m690 -51 l0 -65 22 15 c32 22 81 20 103 -4 27 -30 36 -200 11 -200 -13 0
-16 13 -16 80 0 67 -3 83 -20 100 -26 26 -46 25 -75 -5 -22 -21 -25 -33 -25
-100 0 -60 -3 -75 -15 -75 -13 0 -15 24 -15 160 0 136 2 160 15 160 12 0 15
-14 15 -66z m3470 51 c0 -8 -6 -12 -14 -9 -19 7 -46 -23 -46 -52 0 -20 5 -24
30 -24 17 0 30 -4 30 -10 0 -5 -13 -10 -30 -10 l-30 0 0 -100 c0 -60 -4 -100
-10 -100 -6 0 -10 40 -10 100 0 93 -1 100 -20 100 -11 0 -20 5 -20 10 0 6 9
10 20 10 16 0 20 7 20 32 0 17 7 40 17 50 20 22 63 24 63 3z m970 -51 l0 -65
22 15 c32 22 81 20 103 -4 27 -30 36 -200 11 -200 -13 0 -16 13 -16 80 0 67
-3 83 -20 100 -26 26 -46 25 -75 -5 -22 -21 -25 -33 -25 -100 0 -60 -3 -75
-15 -75 -13 0 -15 24 -15 160 0 136 2 160 15 160 12 0 15 -14 15 -66z m3980
-94 c0 -136 -2 -160 -15 -160 -13 0 -15 24 -15 160 0 136 2 160 15 160 13 0
15 -24 15 -160z m4640 94 l0 -65 22 15 c32 22 81 20 103 -4 27 -30 36 -200 11
-200 -13 0 -16 13 -16 80 0 67 -3 83 -20 100 -26 26 -46 25 -75 -5 -22 -21
-25 -33 -25 -100 0 -60 -3 -75 -15 -75 -13 0 -15 24 -15 160 0 136 2 160 15
160 12 0 15 -14 15 -66z m690 -36 l0 -102 48 54 c28 31 54 51 62 48 10 -3 1
-19 -33 -54 l-47 -51 51 -56 c63 -71 43 -75 -28 -5 l-53 52 0 -52 c0 -40 -4
-52 -15 -52 -13 0 -15 24 -15 160 0 136 2 160 15 160 12 0 15 -18 15 -102z
m-13166 84 c8 -13 -11 -35 -23 -28 -16 10 -14 36 3 36 8 0 17 -4 20 -8z m1660
0 c8 -13 -11 -35 -23 -28 -16 10 -14 36 3 36 8 0 17 -4 20 -8z m4970 0 c8 -13
-11 -35 -23 -28 -16 10 -14 36 3 36 8 0 17 -4 20 -8z m4250 0 c8 -13 -11 -35
-23 -28 -16 10 -14 36 3 36 8 0 17 -4 20 -8z m580 0 c8 -13 -11 -35 -23 -28
-16 10 -14 36 3 36 8 0 17 -4 20 -8z m-15674 -152 c0 -127 -2 -150 -15 -150
-13 0 -15 23 -15 150 0 127 2 150 15 150 13 0 15 -23 15 -150z m6940 0 c0
-127 -2 -150 -15 -150 -13 0 -15 23 -15 150 0 127 2 150 15 150 13 0 15 -23
15 -150z m11450 45 c0 -63 -4 -105 -10 -105 -6 0 -10 42 -10 105 0 63 4 105
10 105 6 0 10 -42 10 -105z m-14880 55 c0 -27 3 -30 30 -30 17 0 30 -4 30 -10
0 -5 -13 -10 -30 -10 l-30 0 0 -79 c0 -76 12 -107 36 -99 5 2 11 -1 14 -7 3
-5 -7 -11 -22 -13 -42 -5 -58 28 -58 120 0 63 -3 78 -15 78 -8 0 -15 5 -15 10
0 6 7 10 15 10 9 0 15 9 15 23 0 13 3 27 7 30 14 15 23 6 23 -23z m7200 0 c0
-27 3 -30 30 -30 17 0 30 -4 30 -10 0 -5 -13 -10 -30 -10 l-30 0 0 -79 c0 -76
12 -107 36 -99 5 2 11 -1 14 -7 3 -5 -7 -11 -22 -13 -42 -5 -58 28 -58 120 0
63 -3 78 -15 78 -8 0 -15 5 -15 10 0 6 7 10 15 10 9 0 15 9 15 23 0 13 3 27 7
30 14 15 23 6 23 -23z m3060 0 c0 -27 3 -30 30 -30 17 0 30 -4 30 -10 0 -5
-13 -10 -30 -10 l-30 0 0 -79 c0 -76 12 -107 36 -99 5 2 11 -1 14 -7 3 -5 -7
-11 -22 -13 -42 -5 -58 28 -58 120 0 63 -3 78 -15 78 -8 0 -15 5 -15 10 0 6 7
10 15 10 9 0 15 9 15 23 0 13 3 27 7 30 14 15 23 6 23 -23z m550 0 c0 -27 3
-30 30 -30 17 0 30 -4 30 -10 0 -5 -13 -10 -30 -10 l-30 0 0 -79 c0 -76 12
-107 36 -99 5 2 11 -1 14 -7 3 -5 -7 -11 -22 -13 -42 -5 -58 28 -58 120 0 63
-3 78 -15 78 -8 0 -15 5 -15 10 0 6 7 10 15 10 9 0 15 9 15 23 0 13 3 27 7 30
14 15 23 6 23 -23z m1220 0 c0 -27 3 -30 30 -30 17 0 30 -4 30 -10 0 -5 -13
-10 -30 -10 l-30 0 0 -79 c0 -76 12 -107 36 -99 5 2 11 -1 14 -7 3 -5 -7 -11
-22 -13 -42 -5 -58 28 -58 120 0 63 -3 78 -15 78 -8 0 -15 5 -15 10 0 6 7 10
15 10 9 0 15 9 15 23 0 13 3 27 7 30 14 15 23 6 23 -23z m1030 0 c0 -27 3 -30
30 -30 17 0 30 -4 30 -10 0 -5 -13 -10 -30 -10 l-30 0 0 -79 c0 -76 12 -107
36 -99 5 2 11 -1 14 -7 3 -5 -7 -11 -22 -13 -42 -5 -58 28 -58 120 0 63 -3 78
-15 78 -8 0 -15 5 -15 10 0 6 7 10 15 10 9 0 15 9 15 23 0 13 3 27 7 30 14 15
23 6 23 -23z m-16244 -51 c26 -29 35 -199 10 -199 -9 0 -16 7 -16 16 0 14 -2
14 -22 0 -70 -49 -157 26 -97 83 12 11 43 22 70 26 50 7 54 11 43 39 -11 30
-41 38 -79 22 -30 -13 -35 -13 -35 -1 0 38 95 48 126 14z m104 4 c0 -15 1 -15
18 0 24 21 70 22 93 1 16 -15 20 -15 41 0 31 22 74 20 98 -4 17 -17 20 -33 20
-110 0 -73 -3 -90 -15 -90 -12 0 -15 17 -15 90 0 78 -2 91 -19 100 -28 14 -38
13 -61 -10 -17 -17 -20 -33 -20 -100 0 -64 -3 -80 -15 -80 -12 0 -15 16 -15
80 0 68 -3 83 -21 101 -11 11 -27 18 -36 15 -8 -3 -18 -6 -22 -6 -17 0 -31
-55 -31 -120 0 -56 -3 -70 -15 -70 -12 0 -15 19 -15 110 0 91 3 110 15 110 8
0 15 -7 15 -17z m486 -78 c25 -71 34 -86 40 -70 4 11 19 51 33 89 24 62 52 99
50 64 -1 -29 -78 -203 -90 -206 -9 -2 -28 35 -56 108 -33 88 -38 110 -25 108
10 -2 28 -36 48 -93z m309 70 c16 -15 25 -36 25 -55 l0 -30 -75 0 c-72 0 -75
-1 -75 -23 0 -44 50 -71 101 -57 18 5 35 7 38 4 12 -12 -35 -34 -72 -34 -55 0
-97 43 -97 100 0 46 21 94 47 109 33 19 82 13 108 -14z m105 8 c0 -15 1 -15
18 0 10 10 28 17 40 17 32 0 27 -28 -5 -32 -38 -4 -53 -39 -53 -120 0 -54 -3
-68 -15 -68 -12 0 -15 19 -15 110 0 91 3 110 15 110 8 0 15 -7 15 -17z m174
-71 c15 -45 31 -82 35 -82 4 0 21 37 38 83 18 48 37 83 46 85 20 4 -95 -287
-120 -305 -23 -18 -53 -16 -53 2 0 8 8 15 19 15 24 0 39 19 47 56 4 21 -6 60
-34 132 -33 84 -37 103 -24 100 11 -2 27 -32 46 -86z m404 69 c4 -11 -3 -12
-30 -7 -39 7 -75 -12 -65 -36 3 -9 25 -26 49 -39 35 -20 44 -30 46 -56 2 -23
-3 -35 -20 -47 -36 -25 -108 -19 -108 9 0 11 8 11 32 4 39 -11 64 -4 73 19 7
18 2 23 -65 65 -43 28 -49 58 -18 87 26 24 98 25 106 1z m202 4 c59 -30 64
-133 9 -179 -65 -55 -155 -22 -166 61 -13 101 69 163 157 118z m120 -2 c0 -15
1 -15 18 0 10 10 28 17 40 17 32 0 27 -28 -5 -32 -38 -4 -53 -39 -53 -120 0
-54 -3 -68 -15 -68 -12 0 -15 19 -15 110 0 91 3 110 15 110 8 0 15 -7 15 -17z
m150 0 c0 -15 1 -15 18 0 10 10 28 17 40 17 32 0 27 -28 -5 -32 -38 -4 -53
-39 -53 -120 0 -54 -3 -68 -15 -68 -12 0 -15 19 -15 110 0 91 3 110 15 110 8
0 15 -7 15 -17z m174 -71 c15 -45 31 -82 35 -82 4 0 21 37 38 83 18 48 37 83
46 85 20 4 -95 -287 -120 -305 -23 -18 -53 -16 -53 2 0 8 8 15 19 15 24 0 39
19 47 56 4 21 -6 60 -34 132 -33 84 -37 103 -24 100 11 -2 27 -32 46 -86z
m556 73 c59 -30 64 -133 9 -179 -65 -55 -155 -22 -166 61 -13 101 69 163 157
118z m130 -2 c0 -15 1 -15 18 0 10 10 28 17 40 17 32 0 27 -28 -5 -32 -38 -4
-53 -39 -53 -120 0 -54 -3 -68 -15 -68 -12 0 -15 19 -15 110 0 91 3 110 15
110 8 0 15 -7 15 -17z m745 -8 c16 -15 25 -36 25 -55 l0 -30 -75 0 c-72 0 -75
-1 -75 -23 0 -44 50 -71 101 -57 18 5 35 7 38 4 12 -12 -35 -34 -72 -34 -55 0
-97 43 -97 100 0 46 21 94 47 109 33 19 82 13 108 -14z m225 -85 c0 -91 -3
-110 -15 -110 -12 0 -15 19 -15 110 0 91 3 110 15 110 12 0 15 -19 15 -110z
m90 94 c0 -14 2 -14 22 0 30 21 71 20 99 -3 20 -16 23 -29 27 -110 4 -79 2
-91 -12 -91 -13 0 -16 13 -16 80 0 67 -3 83 -20 100 -26 26 -46 25 -75 -5 -22
-21 -25 -33 -25 -100 0 -60 -3 -75 -15 -75 -12 0 -15 19 -15 110 0 91 3 110
15 110 8 0 15 -7 15 -16z m357 -1 c3 -8 -11 -11 -42 -10 -59 2 -85 -24 -85
-88 0 -61 48 -97 104 -76 20 8 26 7 26 -3 0 -17 -22 -26 -67 -26 -53 0 -93 45
-93 105 0 40 5 52 35 82 30 30 40 34 76 31 23 -2 44 -8 46 -15z m193 2 c59
-30 64 -133 9 -179 -65 -55 -155 -22 -166 61 -13 101 69 163 157 118z m130 -1
c0 -14 2 -14 22 0 30 21 71 20 99 -3 20 -16 23 -29 27 -110 4 -79 2 -91 -12
-91 -13 0 -16 13 -16 80 0 67 -3 83 -20 100 -26 26 -46 25 -75 -5 -22 -21 -25
-33 -25 -100 0 -60 -3 -75 -15 -75 -12 0 -15 19 -15 110 0 91 3 110 15 110 8
0 15 -7 15 -16z m236 -79 c25 -71 34 -86 40 -70 4 11 19 51 33 89 24 62 52 99
50 64 -1 -29 -78 -203 -90 -206 -9 -2 -28 35 -56 108 -33 88 -38 110 -25 108
10 -2 28 -36 48 -93z m309 70 c16 -15 25 -36 25 -55 l0 -30 -75 0 c-72 0 -75
-1 -75 -23 0 -44 50 -71 101 -57 18 5 35 7 38 4 12 -12 -35 -34 -72 -34 -55 0
-97 43 -97 100 0 46 21 94 47 109 33 19 82 13 108 -14z m105 9 c0 -14 2 -14
22 0 30 21 71 20 99 -3 20 -16 23 -29 27 -110 4 -79 2 -91 -12 -91 -13 0 -16
13 -16 80 0 67 -3 83 -20 100 -26 26 -46 25 -75 -5 -22 -21 -25 -33 -25 -100
0 -60 -3 -75 -15 -75 -12 0 -15 19 -15 110 0 91 3 110 15 110 8 0 15 -7 15
-16z m240 -94 c0 -91 -3 -110 -15 -110 -12 0 -15 19 -15 110 0 91 3 110 15
110 12 0 15 -19 15 -110z m205 85 c16 -15 25 -36 25 -55 l0 -30 -75 0 c-72 0
-75 -1 -75 -23 0 -44 50 -71 101 -57 18 5 35 7 38 4 12 -12 -35 -34 -72 -34
-55 0 -97 43 -97 100 0 46 21 94 47 109 33 19 82 13 108 -14z m105 9 c0 -14 2
-14 22 0 30 21 71 20 99 -3 20 -16 23 -29 27 -110 4 -79 2 -91 -12 -91 -13 0
-16 13 -16 80 0 67 -3 83 -20 100 -26 26 -46 25 -75 -5 -22 -21 -25 -33 -25
-100 0 -60 -3 -75 -15 -75 -12 0 -15 19 -15 110 0 91 3 110 15 110 8 0 15 -7
15 -16z m357 -1 c3 -8 -11 -11 -42 -10 -59 2 -85 -24 -85 -88 0 -61 48 -97
104 -76 20 8 26 7 26 -3 0 -17 -22 -26 -67 -26 -53 0 -93 45 -93 105 0 40 5
52 35 82 30 30 40 34 76 31 23 -2 44 -8 46 -15z m188 -8 c16 -15 25 -36 25
-55 l0 -30 -75 0 c-72 0 -75 -1 -75 -23 0 -44 50 -71 101 -57 18 5 35 7 38 4
12 -12 -35 -34 -72 -34 -55 0 -97 43 -97 100 0 46 21 94 47 109 33 19 82 13
108 -14z m549 -63 c15 -45 31 -82 35 -82 4 0 21 37 38 83 18 48 37 83 46 85
20 4 -95 -287 -120 -305 -23 -18 -53 -16 -53 2 0 8 8 15 19 15 24 0 39 19 47
56 4 21 -6 60 -34 132 -33 84 -37 103 -24 100 11 -2 27 -32 46 -86z m316 73
c59 -30 64 -133 9 -179 -65 -55 -155 -22 -166 61 -13 101 69 163 157 118z
m130 -67 c0 -46 4 -89 9 -97 12 -19 68 -18 88 2 11 11 18 41 21 96 2 45 8 81
13 81 5 0 9 -49 9 -110 0 -67 -4 -110 -10 -110 -5 0 -10 7 -10 16 0 14 -2 14
-22 0 -35 -25 -83 -20 -107 10 -17 22 -21 41 -21 110 0 68 3 84 15 84 12 0 15
-16 15 -82z m696 61 c26 -29 35 -199 10 -199 -9 0 -16 7 -16 16 0 14 -2 14
-22 0 -70 -49 -157 26 -97 83 12 11 43 22 70 26 50 7 54 11 43 39 -11 30 -41
38 -79 22 -30 -13 -35 -13 -35 -1 0 38 95 48 126 14z m110 -74 c25 -71 34 -86
40 -70 4 11 19 51 33 89 24 62 52 99 50 64 -1 -29 -78 -203 -90 -206 -9 -2
-28 35 -56 108 -33 88 -38 110 -25 108 10 -2 28 -36 48 -93z m309 70 c16 -15
25 -36 25 -55 l0 -30 -75 0 c-72 0 -75 -1 -75 -23 0 -44 50 -71 101 -57 18 5
35 7 38 4 12 -12 -35 -34 -72 -34 -55 0 -97 43 -97 100 0 46 21 94 47 109 33
19 82 13 108 -14z m331 4 c26 -29 35 -199 10 -199 -9 0 -16 7 -16 16 0 14 -2
14 -22 0 -70 -49 -157 26 -97 83 12 11 43 22 70 26 50 7 54 11 43 39 -11 30
-41 38 -79 22 -30 -13 -35 -13 -35 -1 0 38 95 48 126 14z m114 5 c0 -14 2 -14
22 0 30 21 71 20 99 -3 20 -16 23 -29 27 -110 4 -79 2 -91 -12 -91 -13 0 -16
13 -16 80 0 67 -3 83 -20 100 -26 26 -46 25 -75 -5 -22 -21 -25 -33 -25 -100
0 -60 -3 -75 -15 -75 -12 0 -15 19 -15 110 0 91 3 110 15 110 8 0 15 -7 15
-16z m234 -72 c15 -45 31 -82 35 -82 4 0 21 37 38 83 18 48 37 83 46 85 20 4
-95 -287 -120 -305 -23 -18 -53 -16 -53 2 0 8 8 15 19 15 24 0 39 19 47 56 4
21 -6 60 -34 132 -33 84 -37 103 -24 100 11 -2 27 -32 46 -86z m419 77 c16 -9
22 -9 25 0 2 6 8 11 13 11 5 0 9 -70 9 -160 0 -100 -4 -160 -10 -160 -6 0 -10
28 -10 65 0 69 -3 73 -34 50 -57 -43 -136 8 -136 86 0 45 21 93 47 108 24 14
69 14 96 0z m147 -71 c0 -46 4 -89 9 -97 12 -19 68 -18 88 2 11 11 18 41 21
96 2 45 8 81 13 81 5 0 9 -49 9 -110 0 -67 -4 -110 -10 -110 -5 0 -10 7 -10
16 0 14 -2 14 -22 0 -35 -25 -83 -20 -107 10 -17 22 -21 41 -21 110 0 68 3 84
15 84 12 0 15 -16 15 -82z m345 57 c16 -15 25 -36 25 -55 l0 -30 -75 0 c-72 0
-75 -1 -75 -23 0 -44 50 -71 101 -57 18 5 35 7 38 4 12 -12 -35 -34 -72 -34
-55 0 -97 43 -97 100 0 46 21 94 47 109 33 19 82 13 108 -14z m193 6 c4 -11
-3 -12 -30 -7 -39 7 -75 -12 -65 -36 3 -9 25 -26 49 -39 35 -20 44 -30 46 -56
2 -23 -3 -35 -20 -47 -36 -25 -108 -19 -108 9 0 11 8 11 32 4 39 -11 64 -4 73
19 7 18 2 23 -65 65 -43 28 -49 58 -18 87 26 24 98 25 106 1z m222 -91 c0 -91
-3 -110 -15 -110 -12 0 -15 19 -15 110 0 91 3 110 15 110 12 0 15 -19 15 -110z
m210 95 c59 -30 64 -133 9 -179 -65 -55 -155 -22 -166 61 -13 101 69 163 157
118z m130 -1 c0 -14 2 -14 22 0 30 21 71 20 99 -3 20 -16 23 -29 27 -110 4
-79 2 -91 -12 -91 -13 0 -16 13 -16 80 0 67 -3 83 -20 100 -26 26 -46 25 -75
-5 -22 -21 -25 -33 -25 -100 0 -60 -3 -75 -15 -75 -12 0 -15 19 -15 110 0 91
3 110 15 110 8 0 15 -7 15 -16z m318 -3 c4 -11 -3 -12 -30 -7 -39 7 -75 -12
-65 -36 3 -9 25 -26 49 -39 35 -20 44 -30 46 -56 2 -23 -3 -35 -20 -47 -36
-25 -108 -19 -108 9 0 11 8 11 32 4 39 -11 64 -4 73 19 7 18 2 23 -65 65 -43
28 -49 58 -18 87 26 24 98 25 106 1z m302 3 c0 -15 2 -15 25 0 55 36 129 5
141 -59 18 -97 -73 -179 -144 -129 l-22 15 0 -65 c0 -52 -3 -66 -15 -66 -13 0
-15 24 -15 160 0 136 2 160 15 160 8 0 15 -7 15 -16z m455 -9 c16 -15 25 -36
25 -55 l0 -30 -75 0 c-72 0 -75 -1 -75 -23 0 -44 50 -71 101 -57 18 5 35 7 38
4 12 -12 -35 -34 -72 -34 -55 0 -97 43 -97 100 0 46 21 94 47 109 33 19 82 13
108 -14z m211 4 c26 -29 35 -199 10 -199 -9 0 -16 7 -16 16 0 14 -2 14 -22 0
-70 -49 -157 26 -97 83 12 11 43 22 70 26 50 7 54 11 43 39 -11 30 -41 38 -79
22 -30 -13 -35 -13 -35 -1 0 38 95 48 126 14z m202 2 c4 -11 -3 -12 -30 -7
-39 7 -75 -12 -65 -36 3 -9 25 -26 49 -39 35 -20 44 -30 46 -56 2 -23 -3 -35
-20 -47 -36 -25 -108 -19 -108 9 0 11 8 11 32 4 39 -11 64 -4 73 19 7 18 2 23
-65 65 -43 28 -49 58 -18 87 26 24 98 25 106 1z m197 -6 c16 -15 25 -36 25
-55 l0 -30 -75 0 c-72 0 -75 -1 -75 -23 0 -44 50 -71 101 -57 18 5 35 7 38 4
12 -12 -35 -34 -72 -34 -55 0 -97 43 -97 100 0 46 21 94 47 109 33 19 82 13
108 -14z m342 8 c3 -8 -11 -11 -42 -10 -59 2 -85 -24 -85 -88 0 -61 48 -97
104 -76 20 8 26 7 26 -3 0 -17 -22 -26 -67 -26 -53 0 -93 45 -93 105 0 40 5
52 35 82 30 30 40 34 76 31 23 -2 44 -8 46 -15z m193 2 c59 -30 64 -133 9
-179 -65 -55 -155 -22 -166 61 -13 101 69 163 157 118z m130 -1 c0 -14 2 -14
22 0 30 21 71 20 99 -3 20 -16 23 -29 27 -110 4 -79 2 -91 -12 -91 -13 0 -16
13 -16 80 0 67 -3 83 -20 100 -26 26 -46 25 -75 -5 -22 -21 -25 -33 -25 -100
0 -60 -3 -75 -15 -75 -12 0 -15 19 -15 110 0 91 3 110 15 110 8 0 15 -7 15
-16z m476 -5 c26 -29 35 -199 10 -199 -9 0 -16 7 -16 16 0 14 -2 14 -22 0 -70
-49 -157 26 -97 83 12 11 43 22 70 26 50 7 54 11 43 39 -11 30 -41 38 -79 22
-30 -13 -35 -13 -35 -1 0 38 95 48 126 14z m221 4 c3 -8 -11 -11 -42 -10 -59
2 -85 -24 -85 -88 0 -61 48 -97 104 -76 20 8 26 7 26 -3 0 -17 -22 -26 -67
-26 -53 0 -93 45 -93 105 0 40 5 52 35 82 30 30 40 34 76 31 23 -2 44 -8 46
-15z m333 -65 c0 -46 4 -89 9 -97 12 -19 68 -18 88 2 11 11 18 41 21 96 2 45
8 81 13 81 5 0 9 -49 9 -110 0 -67 -4 -110 -10 -110 -5 0 -10 7 -10 16 0 14
-2 14 -22 0 -35 -25 -83 -20 -107 10 -17 22 -21 41 -21 110 0 68 3 84 15 84
12 0 15 -16 15 -82z m328 63 c4 -11 -3 -12 -30 -7 -39 7 -75 -12 -65 -36 3 -9
25 -26 49 -39 35 -20 44 -30 46 -56 2 -23 -3 -35 -20 -47 -36 -25 -108 -19
-108 9 0 11 8 11 32 4 39 -11 64 -4 73 19 7 18 2 23 -65 65 -43 28 -49 58 -18
87 26 24 98 25 106 1z m202 -91 c0 -91 -3 -110 -15 -110 -12 0 -15 19 -15 110
0 91 3 110 15 110 12 0 15 -19 15 -110z m90 94 c0 -14 2 -14 22 0 30 21 71 20
99 -3 20 -16 23 -29 27 -110 4 -79 2 -91 -12 -91 -13 0 -16 13 -16 80 0 67 -3
83 -20 100 -26 26 -46 25 -75 -5 -22 -21 -25 -33 -25 -100 0 -60 -3 -75 -15
-75 -12 0 -15 19 -15 110 0 91 3 110 15 110 8 0 15 -7 15 -16z m490 -94 c0
-91 -3 -110 -15 -110 -12 0 -15 19 -15 110 0 91 3 110 15 110 12 0 15 -19 15
-110z m90 93 c0 -15 1 -15 18 0 24 21 70 22 93 1 16 -15 20 -15 41 0 31 22 74
20 98 -4 17 -17 20 -33 20 -110 0 -73 -3 -90 -15 -90 -12 0 -15 17 -15 90 0
78 -2 91 -19 100 -28 14 -38 13 -61 -10 -17 -17 -20 -33 -20 -100 0 -64 -3
-80 -15 -80 -12 0 -15 16 -15 80 0 68 -3 83 -21 101 -11 11 -27 18 -36 15 -8
-3 -18 -6 -22 -6 -17 0 -31 -55 -31 -120 0 -56 -3 -70 -15 -70 -12 0 -15 19
-15 110 0 91 3 110 15 110 8 0 15 -7 15 -17z m475 -8 c16 -15 25 -36 25 -55
l0 -30 -75 0 c-72 0 -75 -1 -75 -23 0 -44 50 -71 101 -57 18 5 35 7 38 4 12
-12 -35 -34 -72 -34 -55 0 -97 43 -97 100 0 46 21 94 47 109 33 19 82 13 108
-14z m801 4 c26 -29 35 -199 10 -199 -9 0 -16 7 -16 16 0 14 -2 14 -22 0 -70
-49 -157 26 -97 83 12 11 43 22 70 26 50 7 54 11 43 39 -11 30 -41 38 -79 22
-30 -13 -35 -13 -35 -1 0 38 95 48 126 14z m104 5 c0 -14 2 -14 22 0 30 21 71
20 99 -3 20 -16 23 -29 27 -110 4 -79 2 -91 -12 -91 -13 0 -16 13 -16 80 0 67
-3 83 -20 100 -26 26 -46 25 -75 -5 -22 -21 -25 -33 -25 -100 0 -60 -3 -75
-15 -75 -12 0 -15 19 -15 110 0 91 3 110 15 110 8 0 15 -7 15 -16z m564 -72
c15 -45 31 -82 35 -82 4 0 21 37 38 83 18 48 37 83 46 85 20 4 -95 -287 -120
-305 -23 -18 -53 -16 -53 2 0 8 8 15 19 15 24 0 39 19 47 56 4 21 -6 60 -34
132 -33 84 -37 103 -24 100 11 -2 27 -32 46 -86z m316 73 c59 -30 64 -133 9
-179 -65 -55 -155 -22 -166 61 -13 101 69 163 157 118z m120 -67 c0 -46 4 -89
9 -97 12 -19 68 -18 88 2 11 11 18 41 21 96 2 45 8 81 13 81 5 0 9 -49 9 -110
0 -67 -4 -110 -10 -110 -5 0 -10 7 -10 16 0 14 -2 14 -22 0 -35 -25 -83 -20
-107 10 -17 22 -21 41 -21 110 0 68 3 84 15 84 12 0 15 -16 15 -82z m13254
-75 c3 -10 49 -272 102 -583 86 -502 114 -641 114 -559 0 13 -43 272 -95 574
-52 303 -95 558 -95 568 0 13 9 17 39 17 l40 0 10 -52 c6 -29 85 -458 176
-953 91 -495 167 -910 170 -922 l5 -23 -720 0 c-693 0 -720 1 -720 18 0 11 79
447 175 970 96 524 175 954 175 957 0 3 139 5 309 5 286 0 310 -1 315 -17z
m-19808 -38 c-12 -46 -26 -75 -36 -75 -10 0 -6 31 11 78 12 31 33 29 25 -3z
m4750 0 c-12 -46 -26 -75 -36 -75 -10 0 -6 31 11 78 12 31 33 29 25 -3z
m-9501 -5 c0 -8 -8 -16 -17 -18 -13 -2 -18 3 -18 18 0 15 5 20 18 18 9 -2 17
-10 17 -18z m11561 9 c10 -17 -13 -36 -27 -22 -12 12 -4 33 11 33 5 0 12 -5
16 -11z m14024 -2232 c-525 -514 -1263 -876 -2075 -1017 -257 -45 -450 -62
-765 -67 -278 -4 -353 -2 -840 31 -1205 81 -1760 133 -2400 222 -1186 164
-2166 427 -2992 802 -95 44 -204 95 -243 115 l-70 36 4755 0 4755 0 -125 -122z"/>
<path d="M3050 15273 c-46 -24 -80 -90 -80 -158 0 -68 34 -134 80 -158 113
-58 225 65 191 210 -24 98 -112 147 -191 106z"/>
<path d="M7651 15240 c-70 -15 -130 -56 -152 -103 -25 -55 -24 -93 4 -147 18
-36 34 -51 81 -75 53 -27 68 -30 155 -30 85 0 103 3 153 28 72 35 102 80 102
152 0 106 -80 171 -224 179 -41 3 -95 1 -119 -4z"/>
<path d="M29130 13610 c-15 -28 -4 -59 23 -64 12 -3 36 -8 52 -12 60 -14 186
-3 213 18 28 23 7 78 -30 78 -24 0 -23 -17 2 -25 11 -3 20 -12 20 -20 0 -16
-35 -29 -50 -20 -5 3 -20 -1 -32 -9 -29 -20 -67 -20 -96 0 -13 9 -31 13 -43 9
-11 -4 -27 -1 -36 6 -13 12 -12 16 13 36 l29 23 -27 0 c-17 0 -31 -8 -38 -20z"/>
<path d="M29217 13404 c-14 -15 7 -24 53 -24 55 0 83 8 74 21 -6 10 -117 12
-127 3z"/>
<path d="M10702 13571 c-85 -22 -161 -107 -183 -206 -18 -79 -8 -231 19 -281
65 -127 176 -178 304 -140 113 33 169 121 176 280 7 166 -31 268 -121 320 -48
29 -139 41 -195 27z"/>
<path d="M3125 13372 c-33 -101 -61 -190 -63 -198 -3 -12 18 -14 122 -14 69 0
126 2 126 4 0 2 -25 77 -56 167 -30 90 -58 178 -62 194 -6 26 -16 5 -67 -153z"/>
<path d="M8860 13440 l0 -140 73 0 c131 0 203 60 194 163 -7 86 -59 117 -194
117 l-73 0 0 -140z"/>
<path d="M9710 13440 l0 -140 73 0 c56 0 83 5 117 23 77 39 103 130 57 198
-29 43 -71 58 -169 58 l-78 1 0 -140z"/>
<path d="M11560 13440 l0 -140 73 0 c131 0 203 60 194 163 -7 86 -59 117 -194
117 l-73 0 0 -140z"/>
<path d="M26620 12611 c-92 -30 -171 -97 -211 -179 -19 -39 -24 -63 -24 -137
0 -78 4 -97 27 -141 27 -52 64 -96 110 -129 l26 -20 -27 -273 c-15 -150 -25
-275 -22 -277 2 -3 101 -5 219 -5 l214 0 -6 53 c-3 28 -15 153 -27 275 l-21
224 50 44 c110 97 147 251 90 376 -58 125 -154 190 -292 195 -45 1 -92 -1
-106 -6z m203 -31 c118 -44 200 -160 200 -285 0 -102 -65 -216 -149 -263 -17
-10 -17 -22 4 -254 13 -133 26 -258 29 -275 l5 -33 -196 0 -196 0 0 28 c0 15
11 136 25 270 l24 243 -67 67 c-74 73 -102 133 -102 217 0 129 99 256 230 296
48 14 138 9 193 -11z"/>
<path d="M28472 12300 c-101 -4 -186 -10 -189 -13 -9 -9 29 -271 41 -283 12
-13 257 -74 294 -74 21 0 300 106 313 119 4 3 2 62 -5 131 l-11 125 -130 1
c-71 1 -212 -2 -313 -6z"/>
<path d="M10655 10015 c-48 -47 -16 -125 52 -125 32 0 73 42 73 75 0 33 -42
75 -75 75 -14 0 -37 -11 -50 -25z"/>
<path d="M10800 9965 c0 -34 1 -35 40 -35 39 0 40 1 40 35 0 34 -1 35 -40 35
-39 0 -40 -1 -40 -35z"/>
<path d="M13946 10019 c-17 -13 -26 -30 -26 -49 0 -33 40 -70 75 -70 35 0 75
37 75 70 0 33 -40 70 -75 70 -12 0 -34 -9 -49 -21z"/>
<path d="M14090 9970 l0 -40 40 0 40 0 0 40 0 40 -40 0 -40 0 0 -40z"/>
<path d="M14905 10015 c-14 -13 -25 -36 -25 -50 0 -33 42 -75 75 -75 33 0 75
42 75 75 0 33 -42 75 -75 75 -14 0 -37 -11 -50 -25z"/>
<path d="M7880 10022 l-23 -19 21 -21 c27 -27 62 -28 93 -3 23 19 24 19 5 40
-24 26 -66 27 -96 3z"/>
<path d="M6060 9925 l0 -35 65 0 65 0 0 35 0 35 -65 0 -65 0 0 -35z"/>
<path d="M6520 9985 l0 -45 100 0 100 0 0 45 0 45 -100 0 -100 0 0 -45z"/>
<path d="M7356 10009 c-60 -47 -13 -138 64 -125 41 7 60 29 60 70 0 37 -7 49
-37 65 -32 16 -57 14 -87 -10z"/>
<path d="M12986 10009 c-60 -47 -13 -138 64 -125 41 7 60 29 60 70 0 37 -7 49
-37 65 -32 16 -57 14 -87 -10z"/>
<path d="M8855 9995 c-22 -21 -25 -33 -25 -90 0 -57 3 -69 25 -90 29 -30 55
-32 85 -7 44 36 44 158 -1 195 -29 24 -55 21 -84 -8z"/>
<path d="M12070 10008 c-13 -7 -31 -25 -39 -40 -14 -25 -14 -29 5 -55 39 -51
145 -55 184 -6 26 33 25 46 -3 79 -28 32 -106 43 -147 22z"/>
<path d="M32720 9590 c0 -6 40 -10 100 -10 60 0 100 4 100 10 0 6 -40 10 -100
10 -60 0 -100 -4 -100 -10z"/>
<path d="M5132 9934 c-12 -8 -22 -24 -22 -34 0 -24 37 -50 70 -50 63 0 97 70
44 90 -36 14 -66 12 -92 -6z"/>
<path d="M11602 9934 c-45 -31 -13 -94 48 -94 36 0 70 27 70 55 0 28 -34 55
-70 55 -14 0 -36 -7 -48 -16z"/>
<path d="M13392 9904 c-34 -23 -27 -83 11 -104 24 -13 30 -13 55 0 37 21 44
81 10 104 -12 9 -29 16 -38 16 -9 0 -26 -7 -38 -16z"/>
<path d="M6970 9787 c-16 -8 -25 -21 -25 -37 0 -31 35 -50 95 -50 60 0 95 19
95 50 0 31 -35 50 -95 50 -25 0 -56 -6 -70 -13z"/>
<path d="M14910 9730 c0 -29 2 -30 45 -30 43 0 45 1 45 30 0 29 -2 30 -45 30
-43 0 -45 -1 -45 -30z"/>
<path d="M6138 9799 c-50 -19 -48 -70 4 -88 88 -31 184 6 162 62 -12 32 -107
47 -166 26z"/>
<path d="M3780 9750 l0 -50 95 0 95 0 0 50 0 50 -95 0 -95 0 0 -50z"/>
<path d="M15330 9725 l0 -25 100 0 100 0 0 25 0 25 -100 0 -100 0 0 -25z"/>
<path d="M7910 9725 l0 -25 105 0 105 0 0 25 0 25 -105 0 -105 0 0 -25z"/>
<path d="M3801 9532 c-55 -17 -52 -68 5 -84 36 -11 121 -3 140 13 18 15 18 43
0 58 -18 15 -112 23 -145 13z"/>
<path d="M10626 9487 c-67 -67 -22 -223 59 -203 38 10 58 58 53 129 -4 47 -9
64 -27 78 -31 25 -57 24 -85 -4z"/>
<path d="M10765 9400 l0 -60 43 0 42 0 0 60 0 60 -42 0 -43 0 0 -60z"/>
<path d="M13790 9440 l0 -80 65 0 65 0 0 80 0 80 -65 0 -65 0 0 -80z"/>
<path d="M13940 9440 l0 -40 45 0 45 0 0 40 0 40 -45 0 -45 0 0 -40z"/>
<path d="M14355 9508 c-28 -16 -35 -28 -35 -65 0 -67 85 -97 134 -47 16 16 21
71 8 90 -20 31 -73 42 -107 22z"/>
<path d="M14495 9440 c-1 -40 -1 -40 37 -40 38 0 38 0 38 40 0 40 0 40 -37 40
-37 0 -38 -1 -38 -40z"/>
<path d="M2920 9465 l0 -25 100 0 100 0 0 25 0 25 -100 0 -100 0 0 -25z"/>
<path d="M9244 9502 c-22 -14 -34 -52 -34 -106 0 -89 32 -132 79 -107 28 15
35 47 32 144 -1 54 -44 92 -77 69z"/>
<path d="M12560 9523 c-25 -9 -40 -35 -40 -68 0 -48 21 -70 69 -70 51 0 75 23
75 71 0 56 -49 87 -104 67z"/>
<path d="M11590 9475 l0 -45 100 0 100 0 0 45 0 45 -100 0 -100 0 0 -45z"/>
<path d="M8825 9485 c-22 -21 -25 -33 -25 -90 0 -57 3 -69 25 -90 29 -30 55
-32 85 -7 44 36 44 158 -1 195 -29 24 -55 21 -84 -8z"/>
<path d="M12005 9485 c-22 -21 -25 -33 -25 -90 0 -57 3 -69 25 -90 29 -30 55
-32 85 -7 44 36 44 158 -1 195 -29 24 -55 21 -84 -8z"/>
<path d="M13010 9498 c-13 -7 -31 -25 -39 -40 -14 -25 -14 -29 5 -55 39 -51
145 -55 184 -6 26 33 25 46 -3 79 -28 32 -106 43 -147 22z"/>
<path d="M16640 9345 l0 -55 70 0 70 0 0 55 0 55 -70 0 -70 0 0 -55z"/>
<path d="M7472 9429 c-18 -7 -23 -15 -20 -36 6 -56 130 -57 136 0 3 21 -2 29
-23 37 -32 12 -62 12 -93 -1z"/>
<path d="M19292 9429 c-18 -7 -23 -15 -20 -36 6 -56 130 -57 136 0 3 21 -2 29
-23 37 -32 12 -62 12 -93 -1z"/>
<path d="M6095 9395 c-14 -13 -25 -35 -25 -49 0 -30 42 -66 77 -66 29 0 73 42
73 70 0 29 -44 70 -75 70 -14 0 -37 -11 -50 -25z"/>
<path d="M10201 9402 c-56 -45 -14 -130 59 -118 40 6 60 28 60 66 0 38 -20 60
-60 66 -26 4 -42 1 -59 -14z"/>
<path d="M17110 9220 l0 -30 95 0 95 0 0 30 0 30 -95 0 -95 0 0 -30z"/>
<path d="M7090 9278 c-16 -9 -25 -22 -25 -38 0 -16 9 -29 25 -37 32 -16 108
-16 140 0 29 15 37 48 16 66 -23 19 -126 25 -156 9z"/>
<path d="M7490 9215 c0 -25 0 -25 95 -25 95 0 95 0 95 25 0 25 0 25 -95 25
-95 0 -95 0 -95 -25z"/>
<path d="M18470 9240 l0 -50 95 0 95 0 0 50 0 50 -95 0 -95 0 0 -50z"/>
<path d="M19310 9215 c0 -25 0 -25 95 -25 95 0 95 0 95 25 0 25 0 25 -95 25
-95 0 -95 0 -95 -25z"/>
<path d="M7303 8390 c-57 -23 -59 -130 -3 -160 72 -38 136 85 75 145 -26 27
-37 29 -72 15z"/>
<path d="M12863 8390 c-57 -23 -59 -130 -3 -160 72 -38 136 85 75 145 -26 27
-37 29 -72 15z"/>
<path d="M14587 8380 c-23 -18 -27 -29 -27 -68 0 -53 5 -64 37 -81 55 -29 112
32 99 105 -11 57 -65 79 -109 44z"/>
<path d="M14957 8380 c-23 -18 -27 -29 -27 -68 0 -53 5 -64 37 -81 55 -29 112
32 99 105 -11 57 -65 79 -109 44z"/>
<path d="M2880 8350 l0 -120 45 0 c88 0 125 39 125 131 0 42 -5 55 -29 80 -26
25 -37 29 -85 29 l-56 0 0 -120z"/>
<path d="M3186 8379 c-45 -35 -34 -49 38 -49 60 0 64 1 59 20 -6 22 -39 50
-59 50 -6 0 -23 -9 -38 -21z"/>
<path d="M3445 8300 c-51 -7 -65 -16 -65 -41 0 -31 43 -46 74 -25 22 14 46 62
35 70 -2 1 -22 -1 -44 -4z"/>
<path d="M4100 8393 c-36 -14 -50 -36 -50 -83 0 -35 5 -52 20 -65 27 -24 85
-25 108 -2 22 23 24 110 2 131 -18 17 -59 27 -80 19z"/>
<path d="M4890 8393 c-36 -14 -50 -36 -50 -83 0 -35 5 -52 20 -65 27 -24 85
-25 108 -2 22 23 24 110 2 131 -18 17 -59 27 -80 19z"/>
<path d="M5476 8379 c-45 -35 -34 -49 38 -49 60 0 64 1 59 20 -6 22 -39 50
-59 50 -6 0 -23 -9 -38 -21z"/>
<path d="M6426 8379 c-45 -35 -34 -49 38 -49 60 0 64 1 59 20 -6 22 -39 50
-59 50 -6 0 -23 -9 -38 -21z"/>
<path d="M7056 8379 c-45 -35 -34 -49 38 -49 60 0 64 1 59 20 -6 22 -39 50
-59 50 -6 0 -23 -9 -38 -21z"/>
<path d="M7553 8390 c-59 -24 -58 -137 2 -160 34 -13 64 -1 80 31 23 43 19 86
-10 114 -26 27 -37 29 -72 15z"/>
<path d="M7805 8300 c-51 -7 -65 -16 -65 -41 0 -31 43 -46 74 -25 22 14 46 62
35 70 -2 1 -22 -1 -44 -4z"/>
<path d="M7987 8379 c-25 -19 -28 -27 -25 -72 2 -40 8 -54 29 -69 37 -28 77
-15 96 30 37 88 -33 165 -100 111z"/>
<path d="M8236 8379 c-45 -35 -34 -49 38 -49 60 0 64 1 59 20 -6 22 -39 50
-59 50 -6 0 -23 -9 -38 -21z"/>
<path d="M8790 8393 c-36 -14 -50 -36 -50 -83 0 -35 5 -52 20 -65 27 -24 85
-25 108 -2 22 23 24 110 2 131 -18 17 -59 27 -80 19z"/>
<path d="M9405 8300 c-51 -7 -65 -16 -65 -41 0 -31 43 -46 74 -25 22 14 46 62
35 70 -2 1 -22 -1 -44 -4z"/>
<path d="M9726 8379 c-45 -35 -34 -49 38 -49 60 0 64 1 59 20 -6 22 -39 50
-59 50 -6 0 -23 -9 -38 -21z"/>
<path d="M11097 8379 c-25 -19 -28 -27 -25 -72 2 -40 8 -54 29 -69 37 -28 77
-15 96 30 37 88 -33 165 -100 111z"/>
<path d="M11695 8300 c-51 -7 -65 -16 -65 -41 0 -31 43 -46 74 -25 22 14 46
62 35 70 -2 1 -22 -1 -44 -4z"/>
<path d="M12360 8393 c-36 -14 -50 -36 -50 -83 0 -35 5 -52 20 -65 27 -24 85
-25 108 -2 22 23 24 110 2 131 -18 17 -59 27 -80 19z"/>
<path d="M13086 8379 c-45 -35 -34 -49 38 -49 60 0 64 1 59 20 -6 22 -39 50
-59 50 -6 0 -23 -9 -38 -21z"/>
<path d="M13440 8393 c-36 -14 -50 -36 -50 -83 0 -35 5 -52 20 -65 27 -24 85
-25 108 -2 22 23 24 110 2 131 -18 17 -59 27 -80 19z"/>
<path d="M13693 8390 c-59 -24 -58 -137 2 -160 34 -13 64 -1 80 31 23 43 19
86 -10 114 -26 27 -37 29 -72 15z"/>
<path d="M13916 8379 c-45 -35 -34 -49 38 -49 60 0 64 1 59 20 -6 22 -39 50
-59 50 -6 0 -23 -9 -38 -21z"/>
<path d="M14366 8379 c-45 -35 -34 -49 38 -49 60 0 64 1 59 20 -6 22 -39 50
-59 50 -6 0 -23 -9 -38 -21z"/>
<path d="M15436 8379 c-45 -35 -34 -49 38 -49 60 0 64 1 59 20 -6 22 -39 50
-59 50 -6 0 -23 -9 -38 -21z"/>
<path d="M15930 8393 c-36 -14 -50 -36 -50 -83 0 -35 5 -52 20 -65 27 -24 85
-25 108 -2 22 23 24 110 2 131 -18 17 -59 27 -80 19z"/>
<path d="M16490 8393 c-36 -14 -50 -36 -50 -83 0 -35 5 -52 20 -65 27 -24 85
-25 108 -2 22 23 24 110 2 131 -18 17 -59 27 -80 19z"/>
<path d="M17356 8379 c-45 -35 -34 -49 38 -49 60 0 64 1 59 20 -6 22 -39 50
-59 50 -6 0 -23 -9 -38 -21z"/>
<path d="M17577 8379 c-25 -19 -28 -27 -25 -72 2 -40 8 -54 29 -69 37 -28 77
-15 96 30 37 88 -33 165 -100 111z"/>
<path d="M17940 8393 c-36 -14 -50 -36 -50 -83 0 -35 5 -52 20 -65 27 -24 85
-25 108 -2 22 23 24 110 2 131 -18 17 -59 27 -80 19z"/>
<path d="M18445 8300 c-51 -7 -65 -16 -65 -41 0 -31 43 -46 74 -25 22 14 46
62 35 70 -2 1 -22 -1 -44 -4z"/>
<path d="M18976 8379 c-45 -35 -34 -49 38 -49 60 0 64 1 59 20 -6 22 -39 50
-59 50 -6 0 -23 -9 -38 -21z"/>
<path d="M20190 8393 c-36 -14 -50 -36 -50 -83 0 -35 5 -52 20 -65 27 -24 85
-25 108 -2 22 23 24 110 2 131 -18 17 -59 27 -80 19z"/>
<path d="M3155 7790 c-51 -7 -65 -16 -65 -41 0 -31 43 -46 74 -25 22 14 46 62
35 70 -2 1 -22 -1 -44 -4z"/>
<path d="M4006 7869 c-45 -35 -34 -49 38 -49 60 0 64 1 59 20 -6 22 -39 50
-59 50 -6 0 -23 -9 -38 -21z"/>
<path d="M4910 7883 c-36 -14 -50 -36 -50 -83 0 -35 5 -52 20 -65 27 -24 85
-25 108 -2 22 23 24 110 2 131 -18 17 -59 27 -80 19z"/>
<path d="M5910 7883 c-36 -14 -50 -36 -50 -83 0 -35 5 -52 20 -65 27 -24 85
-25 108 -2 22 23 24 110 2 131 -18 17 -59 27 -80 19z"/>
<path d="M6766 7869 c-45 -35 -34 -49 38 -49 60 0 64 1 59 20 -6 22 -39 50
-59 50 -6 0 -23 -9 -38 -21z"/>
<path d="M7650 7883 c-36 -14 -50 -36 -50 -83 0 -35 5 -52 20 -65 27 -24 85
-25 108 -2 22 23 24 110 2 131 -18 17 -59 27 -80 19z"/>
<path d="M8306 7869 c-45 -35 -34 -49 38 -49 60 0 64 1 59 20 -6 22 -39 50
-59 50 -6 0 -23 -9 -38 -21z"/>
<path d="M8856 7869 c-45 -35 -34 -49 38 -49 60 0 64 1 59 20 -6 22 -39 50
-59 50 -6 0 -23 -9 -38 -21z"/>
<path d="M9506 7869 c-45 -35 -34 -49 38 -49 60 0 64 1 59 20 -6 22 -39 50
-59 50 -6 0 -23 -9 -38 -21z"/>
<path d="M10390 7883 c-36 -14 -50 -36 -50 -83 0 -35 5 -52 20 -65 27 -24 85
-25 108 -2 22 23 24 110 2 131 -18 17 -59 27 -80 19z"/>
<path d="M11245 7790 c-51 -7 -65 -16 -65 -41 0 -31 43 -46 74 -25 22 14 46
62 35 70 -2 1 -22 -1 -44 -4z"/>
<path d="M11616 7869 c-45 -35 -34 -49 38 -49 60 0 64 1 59 20 -6 22 -39 50
-59 50 -6 0 -23 -9 -38 -21z"/>
<path d="M11995 7790 c-51 -7 -65 -16 -65 -41 0 -31 43 -46 74 -25 22 14 46
62 35 70 -2 1 -22 -1 -44 -4z"/>
<path d="M12727 7870 c-23 -18 -27 -29 -27 -68 0 -53 5 -64 37 -81 55 -29 112
32 99 105 -11 57 -65 79 -109 44z"/>
<path d="M13206 7869 c-45 -35 -34 -49 38 -49 60 0 64 1 59 20 -6 22 -39 50
-59 50 -6 0 -23 -9 -38 -21z"/>
<path d="M13850 7883 c-36 -14 -50 -36 -50 -83 0 -35 5 -52 20 -65 27 -24 85
-25 108 -2 22 23 24 110 2 131 -18 17 -59 27 -80 19z"/>
<path d="M14723 7880 c-59 -24 -58 -137 2 -160 34 -13 64 -1 80 31 23 43 19
86 -10 114 -26 27 -37 29 -72 15z"/>
<path d="M15036 7869 c-45 -35 -34 -49 38 -49 60 0 64 1 59 20 -6 22 -39 50
-59 50 -6 0 -23 -9 -38 -21z"/>
<path d="M15295 7790 c-51 -7 -65 -16 -65 -41 0 -31 43 -46 74 -25 22 14 46
62 35 70 -2 1 -22 -1 -44 -4z"/>
<path d="M15646 7869 c-45 -35 -34 -49 38 -49 60 0 64 1 59 20 -6 22 -39 50
-59 50 -6 0 -23 -9 -38 -21z"/>
<path d="M16200 7883 c-36 -14 -50 -36 -50 -83 0 -35 5 -52 20 -65 27 -24 85
-25 108 -2 22 23 24 110 2 131 -18 17 -59 27 -80 19z"/>
<path d="M16835 7790 c-51 -7 -65 -16 -65 -41 0 -31 43 -46 74 -25 22 14 46
62 35 70 -2 1 -22 -1 -44 -4z"/>
<path d="M19016 7869 c-45 -35 -34 -49 38 -49 60 0 64 1 59 20 -6 22 -39 50
-59 50 -6 0 -23 -9 -38 -21z"/>
<path d="M19865 7790 c-51 -7 -65 -16 -65 -41 0 -31 43 -46 74 -25 22 14 46
62 35 70 -2 1 -22 -1 -44 -4z"/>
<path d="M20820 7883 c-36 -14 -50 -36 -50 -83 0 -35 5 -52 20 -65 27 -24 85
-25 108 -2 22 23 24 110 2 131 -18 17 -59 27 -80 19z"/>
<path d="M34520 6331 c0 -10 27 -161 36 -200 3 -14 9 -20 14 -15 5 5 0 54 -11
114 -10 58 -19 106 -19 108 0 7 -20 1 -20 -7z"/>
</g>
</svg>
